<?xml version="1.0" encoding="utf-8"?>
<!-- Generator: Adobe Illustrator 14.0.0, SVG Export Plug-In . SVG Version: 6.00 Build 43363)  -->
<!DOCTYPE svg PUBLIC "-//W3C//DTD SVG 1.1//EN" "http://www.w3.org/Graphics/SVG/1.1/DTD/svg11.dtd">
<svg version="1.1" xmlns="http://www.w3.org/2000/svg" xmlns:xlink="http://www.w3.org/1999/xlink" x="0px" y="0px" width="1000px"
	 height="500px" viewBox="0 0 1000 500" enable-background="new 0 0 1000 500" xml:space="preserve">
<g id="Layer_1">
</g>
<g id="Layer_2">
	<rect x="4.833" y="1.083" fill="#231F20" stroke="#231F20" width="1000" height="500"/>
	<g>
		<line fill="#C1B49A" x1="9" y1="0" x2="9" y2="500"/>
		<line fill="#C1B49A" x1="22.84" y1="0" x2="22.84" y2="500"/>
		<line fill="#C1B49A" x1="36.68" y1="0" x2="36.68" y2="500"/>
		<line fill="#C1B49A" x1="50.521" y1="0" x2="50.521" y2="500"/>
		<line fill="#C1B49A" x1="64.361" y1="0" x2="64.361" y2="500"/>
		<line fill="#C1B49A" x1="78.201" y1="0" x2="78.201" y2="500"/>
		<line fill="#C1B49A" x1="92.042" y1="0" x2="92.042" y2="500"/>
		<line fill="#C1B49A" x1="105.882" y1="0" x2="105.882" y2="500"/>
		<line fill="#C1B49A" x1="119.723" y1="0" x2="119.723" y2="500"/>
		<line fill="#C1B49A" x1="133.563" y1="0" x2="133.563" y2="500"/>
		<line fill="#C1B49A" x1="147.403" y1="0" x2="147.403" y2="500"/>
		<line fill="#C1B49A" x1="161.244" y1="0" x2="161.244" y2="500"/>
		<line fill="#C1B49A" x1="175.084" y1="0" x2="175.084" y2="500"/>
		<line fill="#C1B49A" x1="188.924" y1="0" x2="188.924" y2="500"/>
		<line fill="#C1B49A" x1="202.765" y1="0" x2="202.765" y2="500"/>
		<line fill="#C1B49A" x1="216.605" y1="0" x2="216.605" y2="500"/>
		<line fill="#C1B49A" x1="230.445" y1="0" x2="230.445" y2="500"/>
		<line fill="#C1B49A" x1="244.286" y1="0" x2="244.286" y2="500"/>
		<line fill="#C1B49A" x1="258.126" y1="0" x2="258.126" y2="500"/>
		<line fill="#C1B49A" x1="271.967" y1="0" x2="271.967" y2="500"/>
		<line fill="#C1B49A" x1="285.807" y1="0" x2="285.807" y2="500"/>
		<line fill="#C1B49A" x1="299.647" y1="0" x2="299.647" y2="500"/>
		<line fill="#C1B49A" x1="313.488" y1="0" x2="313.488" y2="500"/>
		<line fill="#C1B49A" x1="327.328" y1="0" x2="327.328" y2="500"/>
		<line fill="#C1B49A" x1="341.168" y1="0" x2="341.168" y2="500"/>
		<line fill="#C1B49A" x1="355.009" y1="0" x2="355.009" y2="500"/>
		<line fill="#C1B49A" x1="368.85" y1="0" x2="368.85" y2="500"/>
		<line fill="#C1B49A" x1="382.69" y1="0" x2="382.69" y2="500"/>
		<line fill="#C1B49A" x1="396.53" y1="0" x2="396.53" y2="500"/>
		<line fill="#C1B49A" x1="410.371" y1="0" x2="410.371" y2="500"/>
		<line fill="#C1B49A" x1="424.211" y1="0" x2="424.211" y2="500"/>
		<line fill="#C1B49A" x1="438.051" y1="0" x2="438.051" y2="500"/>
		<line fill="#C1B49A" x1="451.892" y1="0" x2="451.892" y2="500"/>
		<line fill="#C1B49A" x1="465.732" y1="0" x2="465.732" y2="500"/>
		<line fill="#C1B49A" x1="479.573" y1="0" x2="479.573" y2="500"/>
		<line fill="#C1B49A" x1="493.413" y1="0" x2="493.413" y2="500"/>
		<line fill="#C1B49A" x1="507.253" y1="0" x2="507.253" y2="500"/>
		<line fill="#C1B49A" x1="521.094" y1="0" x2="521.094" y2="500"/>
		<line fill="#C1B49A" x1="534.935" y1="0" x2="534.935" y2="500"/>
		<line fill="#C1B49A" x1="548.774" y1="0" x2="548.774" y2="500"/>
		<line fill="#C1B49A" x1="562.615" y1="0" x2="562.615" y2="500"/>
		<line fill="#C1B49A" x1="576.455" y1="0" x2="576.455" y2="500"/>
		<line fill="#C1B49A" x1="590.296" y1="0" x2="590.296" y2="500"/>
		<line fill="#C1B49A" x1="604.136" y1="0" x2="604.136" y2="500"/>
		<line fill="#C1B49A" x1="617.977" y1="0" x2="617.977" y2="500"/>
		<line fill="#C1B49A" x1="631.816" y1="0" x2="631.816" y2="500"/>
		<line fill="#C1B49A" x1="645.657" y1="0" x2="645.657" y2="500"/>
		<line fill="#C1B49A" x1="659.498" y1="0" x2="659.498" y2="500"/>
		<line fill="#C1B49A" x1="673.338" y1="0" x2="673.338" y2="500"/>
		<line fill="#C1B49A" x1="687.179" y1="0" x2="687.179" y2="500"/>
		<line fill="#C1B49A" x1="701.019" y1="0" x2="701.019" y2="500"/>
		<line fill="#C1B49A" x1="714.859" y1="0" x2="714.859" y2="500"/>
		<line fill="#C1B49A" x1="728.699" y1="0" x2="728.699" y2="500"/>
		<line fill="#C1B49A" x1="742.54" y1="0" x2="742.54" y2="500"/>
		<line fill="#C1B49A" x1="756.38" y1="0" x2="756.38" y2="500"/>
		<line fill="#C1B49A" x1="770.221" y1="0" x2="770.221" y2="500"/>
		<line fill="#C1B49A" x1="784.062" y1="0" x2="784.062" y2="500"/>
		<line fill="#C1B49A" x1="797.901" y1="0" x2="797.901" y2="500"/>
		<line fill="#C1B49A" x1="811.742" y1="0" x2="811.742" y2="500"/>
		<line fill="#C1B49A" x1="825.582" y1="0" x2="825.582" y2="500"/>
		<line fill="#C1B49A" x1="839.423" y1="0" x2="839.423" y2="500"/>
		<line fill="#C1B49A" x1="853.263" y1="0" x2="853.263" y2="500"/>
		<line fill="#C1B49A" x1="867.104" y1="0" x2="867.104" y2="500"/>
		<line fill="#C1B49A" x1="880.944" y1="0" x2="880.944" y2="500"/>
		<line fill="#C1B49A" x1="894.784" y1="0" x2="894.784" y2="500"/>
		<line fill="#C1B49A" x1="908.625" y1="0" x2="908.625" y2="500"/>
		<line fill="#C1B49A" x1="922.465" y1="0" x2="922.465" y2="500"/>
		<line fill="#C1B49A" x1="936.306" y1="0" x2="936.306" y2="500"/>
		<line fill="#C1B49A" x1="950.146" y1="0" x2="950.146" y2="500"/>
		<line fill="#C1B49A" x1="963.986" y1="0" x2="963.986" y2="500"/>
		<line fill="#C1B49A" x1="977.826" y1="0" x2="977.826" y2="500"/>
		<line fill="#C1B49A" x1="991.667" y1="0" x2="991.667" y2="500"/>
	</g>
</g>
<g id="Layer_4">
	<g>
		<line fill="#C1B49A" x1="0" y1="8.333" x2="1000" y2="8.333"/>
		<line fill="#C1B49A" x1="0" y1="21.741" x2="1000" y2="21.741"/>
		<line fill="#C1B49A" x1="0" y1="35.148" x2="1000" y2="35.148"/>
		<line fill="#C1B49A" x1="0" y1="48.556" x2="1000" y2="48.556"/>
		<line fill="#C1B49A" x1="0" y1="61.963" x2="1000" y2="61.963"/>
		<line fill="#C1B49A" x1="0" y1="75.37" x2="1000" y2="75.37"/>
		<line fill="#C1B49A" x1="0" y1="88.778" x2="1000" y2="88.778"/>
		<line fill="#C1B49A" x1="0" y1="102.185" x2="1000" y2="102.185"/>
		<line fill="#C1B49A" x1="0" y1="115.593" x2="1000" y2="115.593"/>
		<line fill="#C1B49A" x1="0" y1="129" x2="1000" y2="129"/>
		<line fill="#C1B49A" x1="0" y1="142.407" x2="1000" y2="142.407"/>
		<line fill="#C1B49A" x1="0" y1="155.815" x2="1000" y2="155.815"/>
		<line fill="#C1B49A" x1="0" y1="169.222" x2="1000" y2="169.222"/>
		<line fill="#C1B49A" x1="0" y1="182.629" x2="1000" y2="182.629"/>
		<line fill="#C1B49A" x1="0" y1="196.037" x2="1000" y2="196.037"/>
		<line fill="#C1B49A" x1="0" y1="209.444" x2="1000" y2="209.444"/>
		<line fill="#C1B49A" x1="0" y1="222.852" x2="1000" y2="222.852"/>
		<line fill="#C1B49A" x1="0" y1="236.259" x2="1000" y2="236.259"/>
		<line fill="#C1B49A" x1="0" y1="249.667" x2="1000" y2="249.667"/>
		<line fill="#C1B49A" x1="0" y1="263.074" x2="1000" y2="263.074"/>
		<line fill="#C1B49A" x1="0" y1="276.481" x2="1000" y2="276.481"/>
		<line fill="#C1B49A" x1="0" y1="289.889" x2="1000" y2="289.889"/>
		<line fill="#C1B49A" x1="0" y1="303.296" x2="1000" y2="303.296"/>
		<line fill="#C1B49A" x1="0" y1="316.704" x2="1000" y2="316.704"/>
		<line fill="#C1B49A" x1="0" y1="330.111" x2="1000" y2="330.111"/>
		<line fill="#C1B49A" x1="0" y1="343.519" x2="1000" y2="343.519"/>
		<line fill="#C1B49A" x1="0" y1="356.926" x2="1000" y2="356.926"/>
		<line fill="#C1B49A" x1="0" y1="370.333" x2="1000" y2="370.333"/>
		<line fill="#C1B49A" x1="0" y1="383.741" x2="1000" y2="383.741"/>
		<line fill="#C1B49A" x1="0" y1="397.148" x2="1000" y2="397.148"/>
		<line fill="#C1B49A" x1="0" y1="410.556" x2="1000" y2="410.556"/>
		<line fill="#C1B49A" x1="0" y1="423.963" x2="1000" y2="423.963"/>
		<line fill="#C1B49A" x1="0" y1="437.37" x2="1000" y2="437.37"/>
		<line fill="#C1B49A" x1="0" y1="450.777" x2="1000" y2="450.777"/>
		<line fill="#C1B49A" x1="0" y1="464.186" x2="1000" y2="464.186"/>
		<line fill="#C1B49A" x1="0" y1="477.593" x2="1000" y2="477.593"/>
		<line fill="#C1B49A" x1="0" y1="491" x2="1000" y2="491"/>
	</g>
</g>
<g id="Layer_5">
	<g>
		<g>
			<g id="Yellow">
				<path fill="none" d="M552.688,236.379c4.189-0.711,5.679-4.123,11.435-3.268C562.879,229.731,549.684,228.767,552.688,236.379z"
					/>
				<path fill="none" d="M586.446,238.556c5.259,5.268,11.282,9.771,10.889,20.691C603.528,250.983,592.875,239.47,586.446,238.556z
					"/>
				<path fill="#F3BF29" d="M589.961,274.294c1.957-0.695,6.098-3.852,7.926-6.696c2.458-3.108,4.188-7.03,4.545-11.82
					c0.174-2.679,0.039-4.191-0.355-6.362c-0.301-3.055-1.767-4.926-4.71-7.318c-6.678-6.742-20.267-13.792-27.809-21.317
					c-0.992-0.989-0.847-0.506-1.021-0.111c-0.104,0.236-0.254,0.29-1.021,0.396c-0.726,0-1.421-0.251-2.146-0.251
					c-3.17-0.28-6.124-0.554-9.833-0.294c-0.183,0-0.362,0-0.546,0c-5.384,1.15-6.171,6.896-14.155,5.445c-0.362,0-0.726,0-1.089,0
					c-10.051,1.021-12.169,9.974-19.058,14.157c-0.872,0.652-2.928,1.68-6.194,1.386c-2.517,0.202-5.484-0.091-6.168-0.092
					c-4.563-0.01-13.665-0.784-14.316-0.75c5.11,5.912,9.522,12.448,13.807,19.186c2.699,4.248,5.15,8.58,7.673,13.004
					c-0.546-0.002,9.009,20.583,17.723,18.447c10.224-1.802,4.006-22.538,1.801-30.071c-3.657,1.312-0.171,4.301-0.128,7.229
					c0.273,4.84,1.719,12.033-2.049,13.157c-4.311,1.285-10.771-8.179-13.235-12.093c-3.981-6.322-6.585-11.977-6.534-17.969
					c2.854-2.047,9.094-0.705,13.612-1.089c0.362,0,0.725,0,1.087,0c1.239,0,5.578-0.024,11.956,0.121
					c8.708-0.198,2.957,0,12.169,1.78c4.456,1.359,8.817,3.54,12.232,4.633c1.828,0.25,3.177,0.435,4.109,0.562
					c3.176,0.85,4.302,1.754,6.197,3.985c1.136,2.158,1.854,3.239,1.867,7.491c0.049,3.842-1.24,5.732-3.584,11.264
					C587.854,275.644,580.354,278.544,589.961,274.294z M552.814,236.31c-3.005-7.613,10.192-6.648,11.435-3.267
					C558.492,232.187,557.003,235.598,552.814,236.31z"/>
			</g>
			<g id="White">
				<path fill="none" d="M565.211,215.689c1.662-17.745-16.932-25.831-31.036-33.213c-13.145-6.88-29.403-15.554-41.924-15.245
					c-2.829,0.07-5.602,1.167-8.24,0.969c-3.313-0.249-5.586-0.846-9.183-2.058c-0.182,0-0.363,0-0.545,0
					c-1.474-0.904-6.693-0.904-8.167,0c-0.182,0-0.363,0-0.544,0c-0.363,0-0.727,0-1.089,0c-1.299,1.189,3.514,3.049,1.633,4.9
					c-21.174-1.695-46.985,1.249-65.882-2.723c1.257,7.352,9.867,9.14,9.801,16.334c-0.035,3.794-5.466,10.471-8.167,14.701
					c-1.328,2.081-2.946,4.766-4.356,7.078c-0.712,1.167-5.982,5.729-1.089,6.534c7.944,4.366,16.319,9.048,16.879,19.056
					c0.611,10.905-7.741,21.636-9.256,31.581c7.164,3.303,22.802,3.188,25.59,10.345c0.627,1.609-0.193,4.284,0,5.989
					c0.761,6.706,3.751,14.938,6.534,21.234c2.842,6.431,6.158,14.031,11.978,16.334c4.852-24.339,8.787-57.262,38.659-53.359
					c8.899,1.164,13.978,8.971,25.045,9.257c0.067,1.203,2.31,0.23,3.267,0.545c4.402,3.096,9.752,18.993,17.968,17.423
					c8.87-1.696,3.353-20.559,1.089-30.49c1.884-2.834,6.387-3.921,10.346-4.68c2.919-0.868,21.782,0.849,23.957,1.413
					c9.171,2.381,8.543,12.098,4.354,22.323c16.576,1.877,30.602-12.229,28.858-30.49
					C593.922,233.803,574.369,229.943,565.211,215.689z M512.396,220.589c-0.905-1.652-0.905-7.059,0-8.711
					c0.808-2.491,7.861-4.217,9.256-1.09c-6.605,1.403-9.409,12.341-1.088,13.068c3.206,0.28,5.014-2.644,7.623-2.178
					C526.75,228.765,513.333,226.137,512.396,220.589z M597.335,259.248c0.394-10.921-5.63-15.425-10.89-20.69"/>
				<path fill="#FFFFFF" d="M596.639,246.262c-3.646-5.67-10.57-10.409-14.199-10.923c4.577,4.177,8.603,7.286,11.18,10.666
					c2.774,3.639,3.92,7.582,3.715,13.244C600.033,255.646,599.453,250.64,596.639,246.262z"/>
				<path fill="#FFFFFF" d="M606.246,241.258c-3.245-5.92-11.415-9.891-16.878-13.611c-6.277-4.275-10.422-8.509-17.423-13.068
					c1.01-9.349-3.096-16.602-8.712-21.779c-6.639-6.119-17.796-12.349-29.401-17.968c-11.237-5.44-23.598-9.628-33.999-12.248
					c-8.25-2-10.794-1.894-16.5-2.625c-7.618-0.317-14.857-0.843-20.285,0.716c-2.599,0.747-9.458,2.533-11.712,3.467
					c-11.887-0.077-20.049,0.751-34.023,0.345c-6.912-0.625-12.229-3.237-16.896-2.987c-16.292,0.167-0.786,18.379,2.739,23.677
					c-3.438,6.152-9.605,12.611-12.522,19.602c-1.37,3.284-2.489,7.169-0.544,11.434c7.927,4.642,17.431,6.692,17.968,16.334
					c0.249,4.464-2.835,11.308-4.9,16.88c-1.662,4.485-6.212,12.754-3.812,17.422c3.247,6.31,22.707,3.353,25.046,9.8
					c1.273,12.277,3.41,20.085,8.712,31.035c2.835,5.857,8.031,17.195,16.334,15.245c5.083-1.194,4.691-8.006,5.989-14.701
					c1.176-6.063,2.55-10.868,3.812-14.701c2.386-7.249,6.62-19.026,14.701-22.324c14.342-5.851,20.966,5.803,36.479,7.624
					c5.565,6.302,9.292,16.688,17.968,18.513c19.377,4.073,19.425-21.394,13.068-34.303c9.762-0.57,25.403-2.003,27.225,4.355
					c1.862,6.506-3.42,9.332-2.179,14.701c0.554,2.393,3.928,5.45,6.534,5.989c12.541,2.588,31.067-12.902,33.759-20.69
					C610.167,258.25,610.834,248.901,606.246,241.258z M593.152,272.174c-4.779,4.005-17.044,6.872-20.449,8.102
					c2.842-6.67,3.305-7.148,3.537-10.813c0.354-5.587-2.024-10.432-7.563-11.869c-2.174-0.564-19.526-2.078-24.328-1.377
					c-3.99,0.581-7.451,2.181-9.335,5.015c1.29,7.568,7.827,27.799-1.727,30.12c-8.13,1.975-13.565-14.328-17.969-17.424
					c-0.479-0.156-5.67-0.045-11.505-2.307c-5.852-2.269-12.352-6.911-16.808-7.494c-29.871-3.901-33.807,29.021-38.658,53.359
					c-5.82-2.303-9.137-9.905-11.978-16.335c-2.783-6.296-5.773-14.527-6.534-21.234c-0.193-1.704,0.627-4.379,0-5.989
					c-2.789-7.156-18.427-7.042-25.59-10.345c1.515-9.944,9.866-20.676,9.256-31.58c-0.561-10.008-8.936-14.691-16.879-19.057
					c-4.894-0.804,0.377-5.366,1.089-6.534c1.41-2.313,3.027-4.998,4.356-7.078c2.702-4.23,8.133-10.907,8.167-14.701
					c0.066-7.194-10.146-9.697-11.402-17.049c11.667,5.625,46.31,1.743,67.483,3.437c2.412-1.515-0.907-4.9-0.544-4.9
					c0.181,0,9.075,0,9.256,0c4.108,1.586,5.999,1.852,9.313,2.1c2.638,0.198,5.523,0.657,8.351,0.792
					c12.979,0.621,28.314,7.511,41.461,14.392c14.103,7.382,32.922,14.519,31.259,32.264c5.893,9.169,17.356,15.308,26.092,21.785
					c2.78,2.061,1.796,1.104,7.58,6.388c1.335,2.023,2.392,3.238,2.809,5.585C603.573,258.218,600.279,266.666,593.152,272.174z"/>
				<path fill="#FFFFFF" d="M520.564,223.856c-8.321-0.727-5.518-11.666,1.088-13.068c-1.395-3.127-8.448-1.401-9.257,1.09
					c-0.904,1.653-0.904,7.059,0,8.711c0.938,5.548,14.354,8.176,15.79,1.089C525.578,221.212,523.771,224.136,520.564,223.856z"/>
			</g>
			<g id="Black">
				<path fill="none" d="M520.564,223.856c-8.321-0.727-5.518-11.666,1.088-13.068c-1.395-3.127-8.448-1.401-9.257,1.09
					c-0.904,1.653-0.904,7.059,0,8.711c0.938,5.548,14.354,8.176,15.79,1.089C525.578,221.212,523.771,224.136,520.564,223.856z"/>
				<path d="M555.442,253.292c-6.701-2.161-14.42-2.658-14.667-2.7c-0.528-0.091-1.317-0.094-1.851-0.094c-2.184,0-4.366,0-6.549,0
					c-1.239,0-2.479,0-3.719,0c-0.363,0-0.726,0-1.089,0c-4.518,0.383-11.693-1.12-14.546,0.927
					c-0.42,6.592,1.22,10.366,6.95,18.976c2.303,3.458,8.938,14.502,13.702,11.003c3.17-2.327,2.887-7.996,2.06-12.938
					c-0.59-4.842-1.546-6.051-0.545-7.622c1.885-2.834,5.253-4.539,10.44-4.704c9.412,0.048,3.975-0.086,11.693,0.299
					c3.431,0.046,6.196,0.594,6.725,0.594C564.592,257.033,562.16,255.459,555.442,253.292z"/>
				<path d="M564.122,233.112c-1.243-3.381-14.438-4.345-11.435,3.268C556.878,235.668,558.366,232.256,564.122,233.112z"/>
				<path d="M568.573,220.954c0.331-0.485,0.162-1.611-0.166-2.056c-0.678-0.92-2.911-1.618-3.576-2.092
					c-5.518-2.671-15.074-0.779-17.967,2.722c-6.942-3.432-6.385-10.772-11.434-16.334c-8.084-8.902-29.741-10.091-45.192-7.623
					c7.053,3.654,16.974,4.441,14.701,17.423c-9.845-5.161-19.521-13.414-32.668-16.879c-27.453-7.234-56.261,2.325-76.227,13.612
					c-0.381,0.361-2.136,1.161-1.515,1.718c-0.018,0.828,1.369,1.301,2.059,1.549c7.944,4.366,16.318,9.049,16.879,19.057
					c0.61,10.904-7.741,21.635-9.257,31.58c7.164,3.304,22.802,3.188,25.591,10.346c0.627,1.607-0.193,4.284,0,5.989
					c0.76,6.706,3.75,14.938,6.534,21.234c2.842,6.431,6.158,14.031,11.978,16.334c4.852-24.339,8.788-57.261,38.659-53.358
					c8.899,1.163,14.024,9.188,25.09,9.474c0.908,0,2.313,0.327,3.223,0.327c0.134-0.031,0.697,0.584,0.881,0.69
					c0.1-1.854-13.784-24.267-22.115-33.902c0.862-0.046,7.454,0.572,9.271,0.572c0.362,0,4.992,0.27,6.534,0.27
					c3.725,0.281,6.616,0.528,9.081-0.329c1.559-0.905,0.898-0.514,1.793-1.06c6.888-4.183,9.005-13.136,19.057-14.156
					c0.363,0,0.726,0,1.09,0c7.984,1.452,8.771-4.295,14.155-5.444c0.183,0,0.362,0,0.546,0c3.709-0.26,6.663,0.014,9.832,0.294
					c0.726,0,1.42,0.25,2.146,0.25C567.975,221.07,568.375,221.245,568.573,220.954z M512.338,220.697
					c-0.942-2.827-0.682-7.138,0.224-8.792c2.347-3.972,7.861-4.216,9.256-1.089c-6.605,1.403-9.412,12.379-1.088,13.068
					c5.487,0.454,2.618-1.474,7.623-2.178C526.915,228.792,514.009,226.865,512.338,220.697z"/>
			</g>
			<path id="Orange" fill="#F57E20" d="M534.316,183.49c-12.858-6.906-26.941-14.073-43.699-14.626
				c-8.826-0.822-11.715-2.15-16.243-3.125c-1.474-0.904-4.057-0.22-8.804,0.402c-2.738,0.359-6.491,0.024-6.488,0.192
				c0.025,1.178,8.678,3.088,7.032,4.708c-21.173-1.694-58.116,1.542-67.282-3.458c1.256,7.352,11.267,9.876,11.202,17.07
				c-0.035,3.794-5.466,10.471-8.167,14.701c-1.329,2.081-2.947,4.766-4.356,7.078c-0.712,1.167-5.911,6.912-1.633,3.266
				c19.966-11.287,48.774-20.846,76.227-13.611c13.148,3.465,22.824,11.717,32.668,16.879c2.272-12.981-7.647-13.769-14.701-17.424
				c15.452-2.468,37.106-1.279,45.191,7.624c5.05,5.561,4.492,12.901,11.435,16.334c2.892-3.502,14.502-4.635,20.021-1.964
				C566.451,199.055,552.359,192.019,534.316,183.49z"/>
		</g>
	</g>
	<path fill="#F3BF29" d="M563.125,256.933"/>
	<path fill="#F3BF29" d="M563.125,256.933"/>
	<path fill="#F3BF29" d="M563.125,256.933"/>
	<path fill="#F3BF29" d="M563.125,256.933"/>
	<path fill="#FFFFFF" d="M565.533,257.094"/>
</g>
<g id="Layer_3">
</g>
</svg>
