<?xml version="1.0" encoding="utf-8"?>
<!-- Generator: Adobe Illustrator 14.0.0, SVG Export Plug-In . SVG Version: 6.00 Build 43363)  -->
<!DOCTYPE svg PUBLIC "-//W3C//DTD SVG 1.1//EN" "http://www.w3.org/Graphics/SVG/1.1/DTD/svg11.dtd">
<svg version="1.1" xmlns="http://www.w3.org/2000/svg" xmlns:xlink="http://www.w3.org/1999/xlink" x="0px" y="0px" width="500px"
	 height="210.735px" viewBox="0 0 500 210.735" enable-background="new 0 0 500 210.735" xml:space="preserve">
<g id="Layer_1">
</g>
<g id="Layer_2">
	<g>
		<rect x="-120.04" y="11.865" fill="none" width="475.141" height="145.763"/>
		<path d="M66.584,51.881l-4.238,0.117l-13.164-0.234l-5.352,0.059c-0.352,0-0.527-0.104-0.527-0.313
			c0-0.143,0.068-0.247,0.205-0.313c0.137-0.065,0.537-0.149,1.201-0.254s1.309-0.401,1.934-0.89
			c0.625-0.488,1.081-1.026,1.367-1.613c0.286-0.586,0.882-2.473,1.787-5.659c0.905-3.186,1.575-5.75,2.012-7.691
			c0.436-1.941,0.654-3.42,0.654-4.438c0-1.173-0.384-2.033-1.152-2.58c-0.769-0.547-1.582-0.86-2.441-0.938
			c-0.808-0.078-1.211-0.228-1.211-0.449c0-0.273,0.195-0.41,0.586-0.41c0.13,0,0.332,0.013,0.605,0.039
			c0.273,0.026,1.816,0.039,4.629,0.039l3.867,0.019l3.047-0.058c0.573,0,0.859,0.114,0.859,0.343c0,0.203-0.3,0.342-0.898,0.418
			c-1.094,0.145-1.892,0.4-2.393,0.768c-0.501,0.367-0.873,0.811-1.113,1.329c-0.241,0.519-0.771,2.332-1.592,5.439
			s-1.507,5.903-2.061,8.385c-0.554,2.482-0.83,4.141-0.83,4.975c0,2.111,1.563,3.167,4.688,3.167c2.096,0,3.73-0.195,4.902-0.586
			s2.148-0.954,2.93-1.689c0.781-0.735,1.973-2.08,3.574-4.033c0.195-0.234,0.352-0.352,0.469-0.352c0.208,0,0.313,0.13,0.313,0.391
			c0,0.222-0.322,1.195-0.967,2.92C67.629,49.515,67.065,50.879,66.584,51.881z"/>
		<path d="M86.506,26.569c0.208,0.091,0.313,0.208,0.313,0.352c0,0.222-0.144,0.345-0.43,0.371c-1.081,0.104-1.843,0.31-2.285,0.615
			c-0.443,0.306-0.808,0.775-1.094,1.406c-0.287,0.632-0.876,2.559-1.768,5.781c-0.892,3.223-1.667,6.214-2.324,8.975
			c-0.658,2.761-0.986,4.401-0.986,4.922c0,1.172,0.69,1.816,2.07,1.934c0.599,0.052,0.898,0.202,0.898,0.449
			c0,0.234-0.248,0.352-0.742,0.352l-6.797-0.117l-2.617,0.059c-0.404,0-0.605-0.117-0.605-0.352c0-0.221,0.313-0.377,0.938-0.469
			c1.159-0.156,1.973-0.481,2.441-0.976c0.469-0.495,0.872-1.464,1.211-2.908l1.973-7.591l1.758-6.85
			c0.469-1.847,0.703-2.915,0.703-3.201c0-1.327-0.938-2.056-2.813-2.186c-0.391-0.039-0.586-0.176-0.586-0.41
			c0-0.156,0.059-0.254,0.176-0.293s0.442-0.059,0.977-0.059L86.506,26.569z"/>
		<path d="M104.084,27.526c-1.016,2.632-2.282,6.764-3.799,12.393c-1.517,5.63-2.275,8.796-2.275,9.5
			c0,0.443,0.306,0.792,0.918,1.045c0.612,0.254,1.823,0.446,3.633,0.577c0.299,0.026,0.449,0.117,0.449,0.273
			c0,0.365-0.332,0.547-0.996,0.547l-4.395-0.098l-7.188,0.039c-0.547,0-0.82-0.117-0.82-0.352c0-0.286,0.358-0.43,1.074-0.43
			c1.289,0,2.178-0.202,2.666-0.606c0.488-0.404,0.889-1.244,1.201-2.521l1.816-6.705l1.855-7.135l1.602-6.353
			c-0.794-0.156-1.615-0.235-2.461-0.235c-1.823,0-3.46,0.476-4.912,1.426c-1.452,0.951-2.783,2.162-3.994,3.633
			c-0.273,0.326-0.482,0.488-0.625,0.488c-0.208,0-0.313-0.098-0.313-0.293c0-0.221,0.296-1.035,0.889-2.441
			c0.592-1.406,1.233-2.682,1.924-3.828l12.109,0.195l9.434-0.234c0.234,0,0.638,0.013,1.211,0.039l0.273,4.121
			c0.091,0.951,0.137,1.777,0.137,2.48c0,0.313-0.13,0.469-0.391,0.469c-0.144,0-0.234-0.091-0.273-0.273
			c-0.794-3.919-3.105-5.879-6.934-5.879C105.314,27.37,104.709,27.422,104.084,27.526z"/>
		<path d="M132.424,27.526c-1.016,2.632-2.282,6.764-3.799,12.393c-1.518,5.63-2.275,8.796-2.275,9.5
			c0,0.443,0.306,0.792,0.918,1.045c0.611,0.254,1.822,0.446,3.633,0.577c0.299,0.026,0.449,0.117,0.449,0.273
			c0,0.365-0.332,0.547-0.996,0.547l-4.395-0.098l-7.188,0.039c-0.547,0-0.821-0.117-0.821-0.352c0-0.286,0.358-0.43,1.075-0.43
			c1.289,0,2.178-0.202,2.666-0.606c0.488-0.404,0.889-1.244,1.201-2.521l1.816-6.705l1.855-7.135l1.602-6.353
			c-0.795-0.156-1.615-0.235-2.461-0.235c-1.823,0-3.461,0.476-4.912,1.426c-1.452,0.951-2.784,2.162-3.995,3.633
			c-0.273,0.326-0.482,0.488-0.625,0.488c-0.208,0-0.313-0.098-0.313-0.293c0-0.221,0.296-1.035,0.889-2.441
			c0.592-1.406,1.233-2.682,1.924-3.828l12.109,0.195l9.434-0.234c0.234,0,0.638,0.013,1.211,0.039l0.273,4.121
			c0.091,0.951,0.137,1.777,0.137,2.48c0,0.313-0.131,0.469-0.391,0.469c-0.144,0-0.234-0.091-0.273-0.273
			c-0.795-3.919-3.105-5.879-6.934-5.879C133.655,27.37,133.049,27.422,132.424,27.526z"/>
		<path d="M163.264,51.881l-4.238,0.117l-13.164-0.234l-5.352,0.059c-0.352,0-0.527-0.104-0.527-0.313
			c0-0.143,0.068-0.247,0.205-0.313c0.137-0.065,0.537-0.149,1.201-0.254s1.309-0.401,1.934-0.89
			c0.625-0.488,1.081-1.026,1.367-1.613s0.882-2.473,1.787-5.659s1.575-5.75,2.012-7.691s0.654-3.42,0.654-4.438
			c0-1.173-0.384-2.033-1.152-2.58s-1.582-0.86-2.441-0.938c-0.808-0.078-1.211-0.228-1.211-0.449c0-0.273,0.195-0.41,0.586-0.41
			c0.13,0,0.332,0.013,0.605,0.039c0.273,0.026,1.816,0.039,4.629,0.039l3.867,0.019l3.047-0.058c0.573,0,0.859,0.114,0.859,0.343
			c0,0.203-0.3,0.342-0.898,0.418c-1.094,0.145-1.892,0.4-2.393,0.768c-0.501,0.367-0.872,0.811-1.113,1.329
			c-0.241,0.519-0.771,2.332-1.592,5.439s-1.507,5.903-2.061,8.385s-0.83,4.141-0.83,4.975c0,2.111,1.563,3.167,4.688,3.167
			c2.097,0,3.73-0.195,4.902-0.586s2.148-0.954,2.93-1.689c0.781-0.735,1.973-2.08,3.574-4.033c0.195-0.234,0.352-0.352,0.469-0.352
			c0.208,0,0.313,0.13,0.313,0.391c0,0.222-0.322,1.195-0.967,2.92C164.309,49.515,163.746,50.879,163.264,51.881z"/>
		<path d="M180.159,27.487c-0.625,1.523-1.354,4.063-2.188,7.617c-0.313,1.328-0.573,2.272-0.781,2.832l1.309,0.039
			c2.109,0,3.672-0.319,4.688-0.957c1.016-0.638,1.81-1.692,2.383-3.164c0.183-0.481,0.352-0.723,0.508-0.723
			c0.234,0,0.352,0.137,0.352,0.41c0,0.169-0.039,0.365-0.117,0.586c-0.144,0.417-0.476,1.605-0.996,3.564
			c-0.521,1.96-0.84,3.304-0.957,4.033c-0.339,1.914-0.537,2.914-0.596,2.998c-0.059,0.085-0.166,0.127-0.322,0.127
			c-0.234,0-0.352-0.137-0.352-0.41l0.059-1.367c0-0.547-0.14-1.221-0.42-2.021s-0.615-1.348-1.006-1.641s-1.013-0.462-1.865-0.508
			c-0.853-0.045-1.807-0.081-2.861-0.107c-0.286,1.302-0.657,2.748-1.113,4.336c-0.677,2.383-1.016,3.952-1.016,4.707
			c0,1.237,0.417,2.087,1.251,2.549c0.833,0.462,2.045,0.693,3.634,0.693c2.476,0,4.143-0.146,5.002-0.438
			c0.86-0.292,1.957-1.045,3.292-2.259s2.38-2.308,3.135-3.282c0.313-0.389,0.554-0.584,0.723-0.584c0.183,0,0.273,0.13,0.273,0.39
			c0,0.74-0.827,3.039-2.481,6.896l-0.898-0.02l-4.728,0.059l-11.291-0.234c-0.833,0-1.907,0.046-3.223,0.137
			c-1.276,0.091-2.208,0.137-2.794,0.137c-0.378,0-0.566-0.114-0.566-0.342c0-0.19,0.176-0.317,0.527-0.38
			c1.563-0.261,2.588-0.625,3.076-1.095c0.488-0.469,1.074-1.811,1.758-4.027c0.684-2.215,1.468-5.105,2.354-8.669
			s1.328-5.841,1.328-6.832c0-2.02-1.048-3.03-3.145-3.03c-0.495,0-0.742-0.11-0.742-0.332c0-0.286,0.195-0.43,0.586-0.43
			l20.078-0.566c0.183,0.873,0.293,1.816,0.332,2.832c0.052,1.537,0.091,2.409,0.117,2.617c0.039,0.313,0.059,0.566,0.059,0.762
			c0,0.261-0.098,0.391-0.293,0.391c-0.208,0-0.384-0.182-0.527-0.547c-0.391-1.002-0.915-1.94-1.572-2.813
			c-0.657-0.872-1.272-1.468-1.846-1.787c-0.573-0.319-1.491-0.479-2.754-0.479C183.577,27.155,181.787,27.266,180.159,27.487z"/>
	</g>
	<g>
		<rect x="0" y="59.887" fill="none" width="500" height="116.384"/>
		<path fill="#F57E20" stroke="#231F20" stroke-width="2" d="M107.819,63.055c1.302,6.348,2.583,12.695,3.845,19.043
			c0,1.181-0.587,1.77-1.761,1.77c-0.649,0-1.377-0.567-2.187-1.702c-4.193-6.08-8.03-10.095-11.511-12.041
			c-3.481-1.945-8.499-2.919-15.053-2.919c-3.664,0-7.206,0.305-10.625,0.914c-0.733,7.188-1.1,15.067-1.1,23.637
			c0,1.462,0.04,3.918,0.122,7.371l4.639,0.061c2.889,0,5.381-0.396,7.477-1.19c2.095-0.793,3.875-2.481,5.34-5.065
			s2.298-4.242,2.502-4.975c0.366-1.302,0.997-1.953,1.892-1.953c1.139,0,1.709,0.488,1.709,1.465c0,0.285-0.041,0.61-0.122,0.977
			c-0.488,2.523-0.732,10.07-0.732,22.645c0,1.749,0.158,3.336,0.475,4.76c0.089,0.407,0.135,0.754,0.135,1.038
			c0,1.14-0.651,1.709-1.953,1.709c-0.896,0-1.587-1.078-2.075-3.235c-0.816-3.783-2.674-6.662-5.571-8.636
			c-2.898-1.974-7.47-3.001-13.715-3.083c-0.204,6.836-0.306,11.333-0.306,13.489c0,9.277,0.142,14.791,0.427,16.54
			c0.284,1.75,1.323,3.165,3.114,4.242c1.791,1.079,4.825,1.617,9.099,1.617c15.509,0,25.707-4.923,30.592-14.77
			c0.688-1.384,1.437-2.076,2.248-2.076c1.174,0,1.761,0.488,1.761,1.465c0,0.651-0.122,1.486-0.366,2.503l-3.967,17.517
			l-22.095-0.061c-6.226-0.041-12.034-0.184-17.425-0.428c-5.392-0.244-9.613-0.365-12.665-0.365c-3.418,0-8.566,0.203-15.442,0.609
			c-0.854,0.082-1.486,0.123-1.892,0.123c-1.913,0-2.869-0.632-2.869-1.893c0-1.139,0.772-1.709,2.319-1.709
			c3.946,0,6.602-1.067,7.965-3.201c1.363-2.135,2.044-6.495,2.044-13.082l0.366-31.407c0-10.732-0.132-17.329-0.397-19.79
			c-0.265-2.459-0.967-4.126-2.105-5.001c-1.14-0.873-3.276-1.534-6.409-1.981c-1.303-0.162-1.953-0.732-1.953-1.709
			c0-1.221,0.752-1.831,2.258-1.831l14.709,0.443L107.819,63.055z"/>
		<path fill="#F57E20" stroke="#231F20" stroke-width="2" d="M159.888,60.248h4.166c5.366,11.638,12.949,29.948,22.748,54.932
			c4.513,11.475,7.624,18.432,9.333,20.871s4.417,3.927,8.121,4.458c1.221,0.163,1.831,0.692,1.831,1.588
			c0,1.261-0.793,1.892-2.38,1.892c-0.854,0-3.073-0.143-6.653-0.427c-4.232-0.367-7.792-0.55-10.681-0.55
			c-2.808,0-6.47,0.162-10.986,0.488c-3.378,0.244-5.595,0.366-6.653,0.366c-1.872,0-2.808-0.59-2.808-1.77
			c0-0.896,0.65-1.404,1.953-1.526c5.005-0.45,7.507-2.418,7.507-5.902c0-1.64-0.73-4.639-2.191-8.999s-3.024-8.324-4.688-11.893
			c-2.652-0.041-4.712-0.062-6.181-0.062c-8.2,0-14.584,0.021-19.154,0.062c-3.508,9.603-5.262,15.963-5.262,19.08
			c0,2.227,0.875,3.957,2.625,5.192c1.749,1.235,3.641,1.953,5.676,2.155c1.546,0.163,2.319,0.793,2.319,1.893
			c0,1.098-0.834,1.647-2.502,1.647c-0.651,0-2.36-0.102-5.127-0.306c-3.581-0.284-6.186-0.427-7.813-0.427
			c-3.215,0-6.267,0.203-9.155,0.61c-0.732,0.122-1.343,0.184-1.831,0.184c-1.506,0-2.258-0.611-2.258-1.832
			c0-0.895,0.488-1.484,1.465-1.77c2.441-0.688,4.354-1.538,5.737-2.551c1.383-1.012,2.878-2.956,4.486-5.831
			s3.533-7.487,5.777-13.835C142.366,103.746,149.893,84.5,159.888,60.248z M155.579,81.549l-10.599,27.282l21.582-0.307
			c-1.139-3.191-2.886-7.568-5.244-13.134C158.753,89.375,156.84,84.761,155.579,81.549z"/>
		<path fill="#F57E20" stroke="#231F20" stroke-width="2" d="M287.506,68.61l1.77,17.699c0.082,0.814,0.123,1.465,0.123,1.953
			c0,1.262-0.547,1.893-1.641,1.893c-1.012,0-1.863-0.712-2.551-2.137c-3.176-6.551-7.359-11.881-12.549-15.99
			c-5.189-4.11-11.162-6.165-17.918-6.165c-8.711,0-15.52,3.642-20.424,10.925c-4.905,7.284-7.356,15.891-7.356,25.818
			c0,11.068,2.716,20.132,8.148,27.191c5.432,7.06,11.83,10.59,19.195,10.59c3.133,0,6.318-0.723,9.553-2.167
			s5.311-2.991,6.225-4.639c0.916-1.648,1.373-4.019,1.373-7.11c0-6.836-0.275-11.099-0.826-12.787
			c-0.553-1.688-1.463-2.858-2.729-3.51c-1.268-0.65-3.844-1.2-7.725-1.648c-1.514-0.162-2.27-0.752-2.27-1.77
			c0-1.18,0.713-1.77,2.139-1.77h9.23l28.18-0.611c1.262,0,1.895,0.529,1.895,1.588c0,0.609-0.244,1.027-0.732,1.251
			s-2.197,0.641-5.127,1.251c-2.197,0.487-3.602,1.218-4.213,2.192c-0.609,0.975-1.078,7.104-1.402,18.388
			c-0.082,2.517-0.164,3.928-0.244,4.231c-0.082,0.306-2.494,1.688-7.232,4.149c-4.742,2.463-9.625,4.294-14.648,5.493
			c-5.027,1.2-10.021,1.801-14.985,1.801c-8.383,0-15.869-1.647-22.461-4.944c-6.592-3.295-11.902-7.943-15.93-13.946
			c-4.028-6.001-6.042-13.153-6.042-21.454c0-11.719,4.038-21.84,12.115-30.364s19.135-12.787,33.172-12.787
			c4.965,0,9.451,0.601,13.459,1.801s8.555,2.92,13.641,5.157c1.018,0.448,1.893,0.672,2.625,0.672c0.814,0,1.443-0.59,1.893-1.771
			c0.568-1.546,1.322-2.319,2.258-2.319C286.59,64.764,287.262,66.045,287.506,68.61z"/>
		<path fill="#F57E20" stroke="#231F20" stroke-width="2" d="M374.541,143.805c-10.172-0.529-26-0.794-47.484-0.794
			c-7.486,0-13.57,0.224-18.25,0.671c-1.139,0.082-1.973,0.123-2.502,0.123c-1.547,0-2.32-0.611-2.32-1.832
			c0-0.569,0.205-0.966,0.611-1.189s1.404-0.458,2.99-0.703c2.523-0.366,4.455-1.11,5.799-2.23c1.342-1.121,2.289-2.792,2.838-5.014
			c0.549-2.221,0.865-7.886,0.945-16.995c0.082-9.109,0.123-19.94,0.123-32.494c0-5.013-0.367-8.649-1.1-10.912
			c-0.732-2.262-1.779-3.912-3.143-4.952c-1.363-1.039-3.285-1.62-5.768-1.742c-1.75-0.081-2.625-0.732-2.625-1.953
			s0.998-1.831,2.99-1.831l20.264,0.61c3.135,0,7.508-0.158,13.123-0.475c2.035-0.09,3.418-0.136,4.15-0.136
			c1.709,0,2.564,0.59,2.564,1.771c0,0.65-0.275,1.108-0.824,1.373s-1.924,0.56-4.121,0.886c-2.725,0.367-4.648,1.061-5.768,2.079
			s-1.871,2.791-2.258,5.318s-0.58,8.192-0.58,16.995v37.11c0.041,5.706,0.549,9.1,1.525,10.179c0.977,1.081,2.83,1.62,5.559,1.62
			c6.676,0,11.643-0.519,14.898-1.556c3.258-1.038,6.361-2.92,9.313-5.646c2.951-2.727,6.117-7.304,9.496-13.733
			c0.689-1.302,1.396-1.953,2.125-1.953c1.094,0,1.641,0.59,1.641,1.771C378.754,120.815,377.35,129.36,374.541,143.805z"/>
		<path fill="#F57E20" stroke="#231F20" stroke-width="2" d="M450.775,63.055c1.301,6.348,2.584,12.695,3.844,19.043
			c0,1.181-0.586,1.77-1.76,1.77c-0.648,0-1.377-0.567-2.188-1.702c-4.193-6.08-8.029-10.095-11.512-12.041
			c-3.48-1.945-8.498-2.919-15.053-2.919c-3.664,0-7.205,0.305-10.625,0.914c-0.732,7.188-1.1,15.067-1.1,23.637
			c0,1.462,0.041,3.918,0.123,7.371l4.639,0.061c2.889,0,5.381-0.396,7.477-1.19c2.096-0.793,3.875-2.481,5.34-5.065
			s2.299-4.242,2.504-4.975c0.365-1.302,0.996-1.953,1.891-1.953c1.141,0,1.709,0.488,1.709,1.465c0,0.285-0.039,0.61-0.121,0.977
			c-0.488,2.523-0.732,10.07-0.732,22.645c0,1.749,0.158,3.336,0.475,4.76c0.09,0.407,0.135,0.754,0.135,1.038
			c0,1.14-0.65,1.709-1.953,1.709c-0.895,0-1.586-1.078-2.074-3.235c-0.816-3.783-2.674-6.662-5.572-8.636
			c-2.896-1.974-7.469-3.001-13.715-3.083c-0.203,6.836-0.305,11.333-0.305,13.489c0,9.277,0.143,14.791,0.426,16.54
			c0.285,1.75,1.324,3.165,3.115,4.242c1.791,1.079,4.824,1.617,9.098,1.617c15.51,0,25.709-4.923,30.594-14.77
			c0.688-1.384,1.436-2.076,2.246-2.076c1.174,0,1.762,0.488,1.762,1.465c0,0.651-0.121,1.486-0.365,2.503l-3.969,17.517
			l-22.094-0.061c-6.227-0.041-12.035-0.184-17.426-0.428c-5.393-0.244-9.613-0.365-12.664-0.365c-3.418,0-8.566,0.203-15.443,0.609
			c-0.854,0.082-1.484,0.123-1.891,0.123c-1.914,0-2.869-0.632-2.869-1.893c0-1.139,0.773-1.709,2.318-1.709
			c3.947,0,6.602-1.067,7.967-3.201c1.361-2.135,2.043-6.495,2.043-13.082l0.367-31.407c0-10.732-0.133-17.329-0.396-19.79
			c-0.266-2.459-0.967-4.126-2.105-5.001c-1.141-0.873-3.275-1.534-6.41-1.981c-1.301-0.162-1.953-0.732-1.953-1.709
			c0-1.221,0.754-1.831,2.26-1.831l14.709,0.443L450.775,63.055z"/>
	</g>
	<g>
		<rect x="212.339" y="137.854" fill="none" width="275.231" height="145.762"/>
		<path d="M255.584,164.902c-1.787,5.951-2.681,9.33-2.681,10.137c0,0.378,0.176,0.771,0.527,1.182s0.957,0.7,1.816,0.869
			c0.43,0.078,0.684,0.137,0.762,0.176s0.117,0.13,0.117,0.273c0,0.234-0.182,0.352-0.547,0.352c-0.26,0-0.599-0.02-1.016-0.059
			c-2.539-0.182-4.7-0.273-6.484-0.273l-2.578,0.059c-0.391,0-0.586-0.134-0.586-0.401c0-0.215,0.345-0.342,1.035-0.38
			c1.614-0.118,2.643-0.769,3.086-1.954c0.442-1.185,1.429-4.436,2.958-9.755c1.53-5.319,2.295-8.682,2.295-10.088
			c0-0.573-0.264-1.022-0.791-1.348c-0.527-0.325-1.116-0.495-1.768-0.508c-0.455,0-0.683-0.117-0.683-0.352
			c0-0.299,0.214-0.449,0.644-0.449l12.813,0.195c1.706,0,3.151,0.026,4.336,0.078c1.042,0.052,1.706,0.078,1.992,0.078
			c0.287,0,0.742-0.02,1.367-0.059c0.026,0.508,0.039,0.879,0.039,1.113c0,4.154-0.201,6.23-0.605,6.23
			c-0.286,0-0.462-0.241-0.527-0.723c-0.143-1.016-0.472-2.015-0.986-2.998c-0.514-0.983-0.992-1.65-1.436-2.002
			c-0.442-0.352-1.087-0.596-1.934-0.732c-0.846-0.137-2.474-0.205-4.883-0.205c-1.146,0-2.018,0.072-2.617,0.215
			c-0.781,1.172-1.888,4.655-3.319,10.449c0.638,0.013,1.224,0.02,1.758,0.02c2.421,0,4.022-0.254,4.804-0.762
			s1.569-1.556,2.363-3.145c0.156-0.313,0.3-0.469,0.43-0.469c0.234,0,0.352,0.15,0.352,0.449c0,0.117-0.025,0.248-0.078,0.391
			c-0.273,0.703-1.126,3.998-2.559,9.883c-0.117,0.443-0.279,0.664-0.488,0.664c-0.234,0-0.352-0.117-0.352-0.352l0.02-0.117
			c0.131-0.651,0.195-1.276,0.195-1.875c0-2.565-1.802-3.848-5.406-3.848C256.657,164.863,256.195,164.876,255.584,164.902z"/>
		<path d="M288.978,151.718c3.125,0,5.576,0.98,7.354,2.939c1.777,1.96,2.666,4.47,2.666,7.529c0,3.945-1.468,7.595-4.404,10.947
			c-2.937,3.353-6.286,5.029-10.049,5.029c-3.086,0-5.534-1.11-7.344-3.33c-1.81-2.22-2.715-4.814-2.715-7.783
			c0-2.383,0.632-4.749,1.895-7.1c1.263-2.35,2.988-4.31,5.176-5.879C283.743,152.503,286.217,151.718,288.978,151.718z
			 M289.876,152.656c-1.602,0-3.269,0.657-5,1.971s-3.216,3.445-4.453,6.392s-1.855,5.936-1.855,8.967
			c0,2.017,0.442,3.728,1.328,5.133c0.886,1.405,2.2,2.107,3.945,2.107c1.862,0,3.613-0.758,5.254-2.273s3.044-3.809,4.209-6.879
			c1.165-3.07,1.748-5.854,1.748-8.353c0-1.679-0.417-3.275-1.25-4.792C292.969,153.414,291.66,152.656,289.876,152.656z"/>
		<path d="M316.478,151.718c3.125,0,5.576,0.98,7.354,2.939c1.777,1.96,2.666,4.47,2.666,7.529c0,3.945-1.468,7.595-4.404,10.947
			c-2.937,3.353-6.286,5.029-10.049,5.029c-3.086,0-5.534-1.11-7.344-3.33c-1.81-2.22-2.715-4.814-2.715-7.783
			c0-2.383,0.632-4.749,1.895-7.1c1.263-2.35,2.988-4.31,5.176-5.879C311.243,152.503,313.717,151.718,316.478,151.718z
			 M317.376,152.656c-1.602,0-3.269,0.657-5,1.971s-3.216,3.445-4.453,6.392s-1.855,5.936-1.855,8.967
			c0,2.017,0.442,3.728,1.328,5.133c0.886,1.405,2.2,2.107,3.945,2.107c1.862,0,3.613-0.758,5.254-2.273s3.044-3.809,4.209-6.879
			c1.165-3.07,1.748-5.854,1.748-8.353c0-1.679-0.417-3.275-1.25-4.792C320.469,153.414,319.16,152.656,317.376,152.656z"/>
		<path d="M345.989,153.515c-1.016,2.632-2.282,6.764-3.799,12.393c-1.517,5.63-2.275,8.796-2.275,9.5
			c0,0.443,0.306,0.792,0.918,1.045s1.823,0.446,3.633,0.577c0.3,0.026,0.449,0.117,0.449,0.273c0,0.365-0.332,0.547-0.996,0.547
			l-4.395-0.098l-7.188,0.039c-0.547,0-0.82-0.117-0.82-0.352c0-0.286,0.358-0.43,1.074-0.43c1.289,0,2.178-0.202,2.666-0.606
			c0.488-0.404,0.889-1.244,1.201-2.521l1.816-6.705l1.855-7.135l1.602-6.353c-0.794-0.156-1.614-0.235-2.461-0.235
			c-1.823,0-3.46,0.476-4.912,1.426c-1.452,0.951-2.783,2.162-3.994,3.633c-0.273,0.326-0.481,0.488-0.625,0.488
			c-0.208,0-0.313-0.098-0.313-0.293c0-0.221,0.296-1.035,0.889-2.441s1.233-2.682,1.924-3.828l12.109,0.195l9.434-0.234
			c0.234,0,0.638,0.013,1.211,0.039l0.273,4.121c0.091,0.951,0.137,1.777,0.137,2.48c0,0.313-0.13,0.469-0.391,0.469
			c-0.144,0-0.234-0.091-0.273-0.273c-0.794-3.919-3.105-5.879-6.934-5.879C347.22,153.359,346.614,153.411,345.989,153.515z"/>
		<path d="M371.829,164.365c2.175,0.573,3.806,1.395,4.893,2.463s1.631,2.385,1.631,3.948c0,1.225-0.394,2.44-1.182,3.646
			s-1.895,2.095-3.32,2.668s-3.675,0.86-6.748,0.86c-1.159,0-2.624-0.046-4.395-0.137c-0.925-0.039-1.667-0.059-2.227-0.059
			l-6.738,0.234c-0.391,0-0.586-0.13-0.586-0.391c0-0.182,0.176-0.286,0.527-0.313c1.563-0.104,2.634-0.368,3.213-0.792
			c0.579-0.424,1.094-1.202,1.543-2.336s1.38-4.323,2.793-9.568c1.413-5.245,2.119-8.551,2.119-9.92c0-0.521-0.313-0.948-0.938-1.28
			c-0.625-0.332-1.315-0.531-2.07-0.596c-0.442-0.051-0.664-0.19-0.664-0.418c0-0.203,0.144-0.304,0.43-0.304
			c0.065,0,0.149,0.007,0.254,0.02c2.474,0.273,4.87,0.41,7.188,0.41l4.824-0.059c2.097,0,3.809,0.494,5.137,1.483
			c1.315,0.988,1.973,2.322,1.973,4c0,1.704-0.638,3.093-1.914,4.167S374.381,163.922,371.829,164.365z M364.603,164.98
			c-0.013,0.091-0.222,0.847-0.625,2.266c-1.198,4.193-1.797,6.869-1.797,8.027c0,0.612,0.267,1.081,0.801,1.406
			c0.534,0.326,1.706,0.488,3.516,0.488c2.539,0,4.512-0.635,5.918-1.904s2.109-2.842,2.109-4.717c0-1.627-0.596-2.988-1.787-4.082
			s-3.018-1.641-5.479-1.641C366.621,164.824,365.735,164.876,364.603,164.98z M364.915,164.003h3.32
			c2.266,0,4.157-0.599,5.674-1.797c1.517-1.198,2.275-2.734,2.275-4.609c0-1.445-0.388-2.526-1.162-3.242
			c-0.774-0.716-1.937-1.074-3.486-1.074c-1.667,0-2.751,0.173-3.252,0.518c-0.501,0.345-1.042,1.387-1.621,3.125
			S365.501,161.022,364.915,164.003z"/>
		<path d="M405.071,151.738l-2.637,10.059l-2.578,9.688c-0.339,1.133-0.508,2.114-0.508,2.943c0,1.49,0.808,2.351,2.422,2.584
			c0.364,0.054,0.547,0.161,0.547,0.321c0,0.268-0.183,0.401-0.547,0.401l-3.535-0.098l-3.242,0.039l-1.914-0.02l-0.977,0.039
			c-0.43,0-0.645-0.13-0.645-0.391c0-0.234,0.176-0.364,0.527-0.391c1.315-0.143,2.249-0.638,2.803-1.484
			c0.554-0.846,1.424-3.392,2.611-7.637c-0.235-0.014-2.169-0.021-5.801-0.021l-1.039-0.021c-0.692,0-1.374,0.419-2.045,1.257
			l-2.662,3.375c-1.094,1.406-1.641,2.526-1.641,3.359c0,0.755,0.729,1.159,2.188,1.211c0.547,0.013,0.82,0.144,0.82,0.391
			c0,0.156-0.059,0.251-0.176,0.283c-0.117,0.033-0.547,0.049-1.289,0.049l-5.82-0.098l-1.348,0.039c-0.273,0-0.41-0.087-0.41-0.261
			c0-0.228,0.195-0.381,0.586-0.462c0.481-0.091,1.062-0.321,1.738-0.69c0.677-0.369,1.272-0.791,1.787-1.264
			s1.272-1.313,2.275-2.519l5.293-6.367l5.371-6.348c1.067-1.198,2.409-2.799,4.023-4.805c1.146-1.419,1.843-2.207,2.09-2.363
			C401.9,152.356,403.145,152.089,405.071,151.738z M397.672,166.816c0.519-1.853,1.056-3.709,1.611-5.568
			c0.636-2.302,1.073-3.784,1.312-4.447c0.119-0.405,0.18-0.765,0.18-1.079c0-0.247-0.091-0.371-0.273-0.371
			c-0.208,0-0.539,0.229-0.993,0.687c-0.453,0.458-1.573,1.753-3.36,3.885l-3.934,4.72c-0.836,1.014-1.254,1.593-1.254,1.738
			c0,0.251,0.176,0.396,0.528,0.436l0.489-0.02L397.672,166.816z"/>
		<path d="M427.688,177.871l-4.238,0.117l-13.164-0.234l-5.352,0.059c-0.352,0-0.527-0.104-0.527-0.313
			c0-0.143,0.068-0.247,0.205-0.313c0.137-0.065,0.537-0.149,1.201-0.254s1.309-0.401,1.934-0.89
			c0.625-0.488,1.081-1.026,1.367-1.613s0.882-2.473,1.787-5.659s1.575-5.75,2.012-7.691s0.654-3.42,0.654-4.438
			c0-1.173-0.384-2.033-1.152-2.58s-1.582-0.86-2.441-0.938c-0.808-0.078-1.211-0.228-1.211-0.449c0-0.273,0.195-0.41,0.586-0.41
			c0.13,0,0.332,0.013,0.605,0.039c0.273,0.026,1.816,0.039,4.629,0.039l3.867,0.019l3.047-0.058c0.573,0,0.859,0.114,0.859,0.343
			c0,0.203-0.3,0.342-0.898,0.418c-1.094,0.145-1.892,0.4-2.393,0.768c-0.501,0.367-0.872,0.811-1.113,1.329
			c-0.241,0.519-0.771,2.332-1.592,5.439s-1.507,5.903-2.061,8.385s-0.83,4.141-0.83,4.975c0,2.111,1.563,3.167,4.688,3.167
			c2.097,0,3.73-0.195,4.902-0.586s2.148-0.954,2.93-1.689c0.781-0.735,1.973-2.08,3.574-4.033c0.195-0.234,0.352-0.352,0.469-0.352
			c0.208,0,0.313,0.13,0.313,0.391c0,0.222-0.322,1.195-0.967,2.92C428.733,175.504,428.17,176.868,427.688,177.871z"/>
		<path d="M453.938,177.871l-4.238,0.117l-13.164-0.234l-5.352,0.059c-0.352,0-0.527-0.104-0.527-0.313
			c0-0.143,0.068-0.247,0.205-0.313c0.137-0.065,0.537-0.149,1.201-0.254s1.309-0.401,1.934-0.89
			c0.625-0.488,1.081-1.026,1.367-1.613s0.882-2.473,1.787-5.659s1.575-5.75,2.012-7.691s0.654-3.42,0.654-4.438
			c0-1.173-0.384-2.033-1.152-2.58s-1.582-0.86-2.441-0.938c-0.808-0.078-1.211-0.228-1.211-0.449c0-0.273,0.195-0.41,0.586-0.41
			c0.13,0,0.332,0.013,0.605,0.039c0.273,0.026,1.816,0.039,4.629,0.039l3.867,0.019l3.047-0.058c0.573,0,0.859,0.114,0.859,0.343
			c0,0.203-0.3,0.342-0.898,0.418c-1.094,0.145-1.892,0.4-2.393,0.768c-0.501,0.367-0.872,0.811-1.113,1.329
			c-0.241,0.519-0.771,2.332-1.592,5.439s-1.507,5.903-2.061,8.385s-0.83,4.141-0.83,4.975c0,2.111,1.563,3.167,4.688,3.167
			c2.097,0,3.73-0.195,4.902-0.586s2.148-0.954,2.93-1.689c0.781-0.735,1.973-2.08,3.574-4.033c0.195-0.234,0.352-0.352,0.469-0.352
			c0.208,0,0.313,0.13,0.313,0.391c0,0.222-0.322,1.195-0.967,2.92C454.983,175.504,454.42,176.868,453.938,177.871z"/>
	</g>
	<g>
	</g>
</g>
</svg>
