<?xml version="1.0" encoding="utf-8"?>
<!-- Generator: Adobe Illustrator 14.0.0, SVG Export Plug-In . SVG Version: 6.00 Build 43363)  -->
<!DOCTYPE svg PUBLIC "-//W3C//DTD SVG 1.1 Tiny//EN" "http://www.w3.org/Graphics/SVG/1.1/DTD/svg11-tiny.dtd">
<svg version="1.1" baseProfile="tiny" id="Layer_1" xmlns="http://www.w3.org/2000/svg" xmlns:xlink="http://www.w3.org/1999/xlink"
	 x="0px" y="0px" width="456.043px" height="340.8px" viewBox="0 0 456.043 340.8" xml:space="preserve">
<g>
	<g id="Yellow">
		<path fill="none" d="M330.012,158.899c8.151-1.383,11.047-8.021,22.246-6.356C349.841,145.965,324.167,144.088,330.012,158.899z"
			/>
		<path fill="none" d="M395.691,163.136c10.234,10.246,21.951,19.009,21.187,40.254C428.926,187.313,408.2,164.912,395.691,163.136z
			"/>
		<path fill-rule="evenodd" fill="#F3BF29" d="M402.049,232.314c3.6-1.564,11.1-7.688,15.223-12.898
			c4.786-6.048,7.53-14.094,8.583-23.333c0.438-3.846,0.156-7.65-0.614-11.875c-1.169-3.806-3.755-9.328-9.156-14.219
			c-13.803-12.498-38.938-26.777-53.61-41.419c-1.93-1.925-1.649-0.984-1.985-0.217c-0.202,0.46-0.496,0.563-1.985,0.77
			c-1.413,0-2.764-0.488-4.176-0.488c-6.166-0.544-11.914-1.078-19.13-0.571c-0.353,0-0.706,0-1.06,0
			c-10.475,2.237-12.007,13.417-27.542,10.593c-0.706,0-1.412,0-2.118,0c-19.555,1.985-23.676,19.404-37.076,27.542
			c-1.699,1.269-5.699,3.269-12.054,2.698c-4.896,0.391-10.669-0.177-12-0.18c-8.876-0.021-26.586-1.525-27.854-1.459
			c9.942,11.501,18.527,24.219,26.862,37.327c5.253,8.262,10.02,16.693,14.929,25.299c-1.063-0.003,18.494,38.946,34.48,35.891
			c17.258-3.299,5.411-43.648,2.444-58.041c-1.949,3.057,0.676,6.846,0.812,13.598c0.531,9.415,3.342,23.41-3.989,25.597
			c-8.385,2.501-20.955-15.912-25.75-23.528c-7.745-12.3-12.813-23.3-12.712-34.958c5.55-3.984,17.693-1.374,26.483-2.119
			c0.706,0,1.412,0,2.118,0c2.41,0,10.85-0.047,23.26,0.235c21.34,2.272,5.507,0.272,23.432,3.736
			c31.546,9.622,23.224,8.741,22.165,8.741c-2.472,0,11.853,0.881,9.381,0.881c7.029,3.081,10.013,3.447,12.363,7.914
			c2.21,4.2,3.166,7.667,3,14.5c1.864,6.585-2.605,15.544-6.487,21.802C397.348,234.458,383.355,240.583,402.049,232.314z
			 M329.901,158.784c-5.845-14.811,19.829-12.934,22.246-6.356C340.948,150.763,338.052,157.401,329.901,158.784z"/>
	</g>
	<g id="White">
		<path fill="none" d="M354.377,118.645c3.235-34.524-32.942-50.256-60.382-64.619c-25.575-13.387-57.207-30.261-81.567-29.661
			c-5.505,0.136-10.899,2.27-16.031,1.885c-6.448-0.484-10.869-1.646-17.867-4.003c-0.353,0-0.706,0-1.06,0
			c-2.867-1.759-13.022-1.759-15.89,0c-0.353,0-0.706,0-1.059,0c-0.707,0-1.413,0-2.119,0c-2.527,2.313,6.837,5.933,3.178,9.534
			c-41.195-3.297-91.412,2.429-128.178-5.297c2.444,14.303,19.196,17.783,19.068,31.78c-0.067,7.382-10.634,20.371-15.89,28.602
			c-2.584,4.048-5.732,9.271-8.475,13.771c-1.385,2.272-11.639,11.147-2.119,12.711c15.455,8.495,31.749,17.605,32.839,37.077
			c1.188,21.214-15.061,42.094-18.009,61.44c13.938,6.426,44.362,6.204,49.788,20.127c1.22,3.13-0.376,8.336,0,11.653
			c1.48,13.048,7.298,29.063,12.712,41.313c5.529,12.512,11.982,27.301,23.305,31.78c9.438-47.352,17.096-111.406,75.212-103.814
			c17.316,2.263,27.197,17.453,48.729,18.009c0.132,2.339,4.493,0.45,6.355,1.059c8.567,6.023,18.972,36.954,34.958,33.898
			c17.258-3.299,5.085-44.93,2.118-59.322c3.667-5.514,12.425-5.937,20.127-7.415c3.566-0.671,9.84,1.365,11.653-1.059
			c0.706,0,1.412,0,2.118,0c2.159,2.431,8.798,0.383,12.712,1.059c0.706,0,1.412,0,2.118,0c4.174,3.994,13.779-0.039,18.009,1.06
			c17.845,4.632,16.622,23.537,8.475,43.432c32.249,3.651,59.537-23.794,56.145-59.322
			C410.237,153.887,372.196,146.377,354.377,118.645z M251.623,128.179c-1.76-3.215-1.76-13.733,0-16.949
			c1.573-4.846,15.295-8.204,18.009-2.119c-12.852,2.729-18.308,24.01-2.118,25.424c6.239,0.545,9.754-5.144,14.83-4.237
			C279.55,144.085,253.446,138.972,251.623,128.179z M416.877,203.391c0.765-21.246-10.952-30.009-21.187-40.254"/>
		<path fill="#FFFFFF" d="M415.522,178.125c-7.09-11.03-20.567-20.249-27.625-21.25c8.906,8.125,16.737,14.176,21.75,20.75
			c5.399,7.08,7.627,14.749,7.23,25.766C422.128,196.384,420.998,186.645,415.522,178.125z"/>
		<path fill="#FFFFFF" d="M434.214,168.392c-5.442-10.891-22.207-19.244-32.839-26.483c-12.213-8.316-20.274-16.554-33.897-25.424
			c1.965-18.188-6.021-32.3-16.949-42.373c-12.917-11.904-34.623-24.025-57.204-34.958c-21.861-10.584-45.441-21.385-65.678-26.483
			c-10.024-2.525-20.646,0.508-32.839,0c-14.82-0.617-28.637-4.094-39.195-1.06c-5.056,1.454-8.326,5.599-12.712,7.416
			c-18.553-2.423-49.598,2.411-76.271,0c-13.448-1.215-22.19-8.356-32.839-6.356c-27.481,5.163-1.563,36.303,5.296,46.61
			C32.4,71.25,20.4,83.816,14.724,97.417c-2.666,6.388-4.842,13.949-1.059,22.246c15.424,9.032,33.913,13.02,34.958,31.78
			c0.483,8.685-5.517,22-9.534,32.839c-3.234,8.727-12.087,24.817-7.415,33.898c6.316,12.276,44.176,6.521,48.729,19.068
			c2.476,23.887,6.634,39.075,16.949,60.381c5.517,11.395,15.626,33.455,31.78,29.66c9.889-2.322,9.127-15.576,11.652-28.602
			c2.288-11.797,4.961-21.145,7.416-28.602c4.642-14.102,12.879-37.017,28.602-43.432c27.902-11.384,40.79,11.288,70.974,14.831
			c10.827,12.259,18.078,32.468,34.958,36.017c37.698,7.926,37.79-41.622,25.424-66.738c18.992-1.11,49.423-3.896,52.966,8.475
			c3.626,12.658-6.653,18.156-4.237,28.602c1.077,4.653,7.638,10.604,12.712,11.651c24.398,5.035,60.446-25.102,65.678-40.253
			C438.917,208.689,439.803,179.575,434.214,168.392z M408.741,228.542c-9.302,7.792-33.162,13.369-39.788,15.761
			c3.716-7.327,6.43-13.907,6.883-21.04c0.69-10.869-3.94-20.294-14.714-23.091c-4.229-1.098-37.989-4.041-47.333-2.679
			c-7.761,1.131-14.495,4.245-18.162,9.759c2.967,14.393,15.229,54.083-3.36,58.598c-15.815,3.842-26.391-27.876-34.958-33.899
			c-0.93-0.304-11.031-0.088-22.383-4.489c-11.385-4.414-24.031-13.446-32.702-14.579c-58.116-7.592-65.774,56.463-75.212,103.814
			c-11.323-4.48-17.776-19.27-23.305-31.781c-5.414-12.25-11.231-28.264-12.712-41.313c-0.376-3.317,1.22-8.522,0-11.653
			c-5.426-13.923-35.851-13.701-49.788-20.127c2.948-19.346,19.196-40.226,18.009-61.44c-1.09-19.472-17.385-28.582-32.839-37.077
			c-9.521-1.564,0.734-10.439,2.119-12.711c2.743-4.5,5.89-9.724,8.475-13.771c5.256-8.231,15.823-21.22,15.89-28.602
			c0.128-13.997-16.624-17.477-19.068-31.78c36.766,7.726,86.983,2,128.178,5.297c4.692-2.948-5.705-7.221-3.178-9.534
			c0.706,0,1.412,0,2.119,0c0.353,0,0.706,0,1.059,0c2.867-1.759,13.023-1.759,15.89,0c0.354,0,0.707,0,1.06,0
			c7.993,3.086,11.67,3.603,18.118,4.086c5.132,0.385,10.746,1.278,16.247,1.542c25.253,1.208,55.089,14.613,80.665,28
			c27.439,14.362,64.054,28.247,60.818,62.771c11.463,17.84,33.768,29.783,50.765,42.385c5.407,4.009,3.491,2.148,14.745,12.428
			c2.599,3.935,4.656,6.301,5.465,10.865C429.014,201.388,422.605,217.824,408.741,228.542z"/>
		<path fill="#FFFFFF" d="M267.513,134.535c-16.189-1.414-10.733-22.695,2.118-25.424c-2.714-6.085-16.436-2.727-18.009,2.119
			c-1.76,3.216-1.76,13.734,0,16.949c1.823,10.793,27.928,15.906,30.721,2.119C277.267,129.391,273.752,135.08,267.513,134.535z"/>
	</g>
	<g id="Black">
		<path fill="none" d="M267.513,134.535c-16.189-1.414-10.733-22.695,2.118-25.424c-2.714-6.085-16.436-2.727-18.009,2.119
			c-1.76,3.216-1.76,13.734,0,16.949c1.823,10.793,27.928,15.906,30.721,2.119C277.267,129.391,273.752,135.08,267.513,134.535z"/>
		<path d="M335.372,191.805c-13.039-4.205-28.056-5.17-28.535-5.252c-1.028-0.177-2.563-0.183-3.601-0.183
			c-4.247,0.001-8.494,0.001-12.741,0.001c-2.412,0-4.824,0-7.236,0c-0.706,0-1.412,0-2.118,0
			c-8.79,0.745-22.751-2.179-28.301,1.805c-0.817,12.823,2.375,20.168,13.524,36.918c4.478,6.727,17.388,28.212,26.658,21.405
			c6.167-4.527,5.617-15.557,4.008-25.171c0.957-5.583-3.009-11.774-1.06-14.831c3.667-5.514,10.219-8.832,20.312-9.152
			c18.076-0.574,13.394,0.461,22.75,0.583c6.673,0.087,12.054,1.153,13.083,1.153C353.173,199.083,348.442,196.02,335.372,191.805z"
			/>
		<path d="M352.258,152.543c-2.417-6.578-28.091-8.455-22.246,6.356C338.164,157.516,341.059,150.878,352.258,152.543z"/>
		<path d="M360.599,128.833c0.642-0.944,0.313-3.134-0.326-4c-1.319-1.79-5.662-3.148-6.955-4.07
			c-10.737-5.196-29.331-1.516-34.958,5.296c-13.506-6.678-12.42-20.96-22.245-31.779c-15.729-17.32-57.862-19.634-87.924-14.831
			c13.723,7.11,33.024,8.642,28.602,33.898c-19.155-10.042-37.979-26.098-63.559-32.839c-53.411-14.075-109.46,4.523-148.305,26.483
			c-0.741,0.704-4.156,2.259-2.947,3.342c-0.035,1.612,2.662,2.531,4.006,3.014c15.455,8.495,31.749,17.605,32.839,37.077
			c1.188,21.214-15.061,42.094-18.009,61.44c13.938,6.426,44.362,6.204,49.788,20.127c1.22,3.13-0.376,8.336,0,11.653
			c1.48,13.049,7.298,29.063,12.712,41.313c5.529,12.512,11.982,27.301,23.305,31.781c9.438-47.352,17.096-111.407,75.212-103.815
			c17.316,2.263,27.284,17.875,48.816,18.432c1.766,0,4.503,0.636,6.269,0.636c0.416-0.098,1.335,0.621,1.217,0.161
			c-0.063-0.245-0.21-0.759-0.447-1.236c-0.237-0.478-0.565-0.918-0.292-0.917c-12.697-22.261-25.583-43.876-41.791-62.626
			c1.677-0.088,14.504,1.115,18.035,1.115c0.706,0,9.714,0.524,12.714,0.524c7.248,0.548,12.875,1.029,17.667-0.638
			c3.034-1.762,1.75-1,3.491-2.061c13.4-8.139,17.521-25.557,37.076-27.542c0.706,0,1.412,0,2.118,0
			c15.535,2.823,17.067-8.356,27.542-10.593c0.354,0,0.707,0,1.06,0c7.216-0.506,12.964,0.027,19.13,0.571
			c1.412,0,2.763,0.488,4.176,0.488C359.435,129.059,360.212,129.4,360.599,128.833z M251.189,128.333
			c-1.833-5.5-1.326-13.888,0.434-17.104c4.566-7.729,15.295-8.204,18.009-2.119c-12.852,2.729-18.314,24.084-2.118,25.424
			c10.676,0.883,5.093-2.867,14.83-4.237C279.55,144.084,254.439,140.333,251.189,128.333z"/>
	</g>
	<path id="Orange" fill-rule="evenodd" fill="#F57E20" d="M293.996,56.145c-25.102-12.906-56.724-28.02-84.746-28.602
		c-14.226-0.295-31.426-5.297-31.78-5.297c-2.867-1.759-16.596,0-16.949,0c-0.707,0-9.631-0.074-9.625,0.253
		c0.049,2.292,13.886,6.129,10.684,9.281C120.386,28.484,67.163,33.726,30.397,26c2.444,14.303,22.202,18.267,22.074,32.264
		c-0.067,7.382-10.634,20.371-15.89,28.602c-2.584,4.048-5.732,9.271-8.475,13.771c-1.385,2.272-11.5,13.447-3.178,6.355
		c38.845-21.959,94.894-40.558,148.305-26.483c25.581,6.741,44.404,22.796,63.559,32.839c4.423-25.256-14.878-26.788-28.602-33.898
		c30.062-4.803,72.194-2.49,87.924,14.831c9.825,10.819,8.739,25.101,22.245,31.779c5.627-6.813,24.221-10.493,34.958-5.296
		C352.796,84.805,324.729,71.947,293.996,56.145z"/>
</g>
</svg>
