<?xml version="1.0" encoding="utf-8"?>
<!-- Generator: Adobe Illustrator 14.0.0, SVG Export Plug-In . SVG Version: 6.00 Build 43363)  -->
<!DOCTYPE svg PUBLIC "-//W3C//DTD SVG 1.1//EN" "http://www.w3.org/Graphics/SVG/1.1/DTD/svg11.dtd">
<svg version="1.1" xmlns="http://www.w3.org/2000/svg" xmlns:xlink="http://www.w3.org/1999/xlink" x="0px" y="0px" width="973px"
	 height="386px" viewBox="0 0 973 386" enable-background="new 0 0 973 386" xml:space="preserve">
<g id="Layer_1">
	<g>
		<g id="Yellow">
			<path fill="none" d="M353.958,194.317c8.152-1.383,11.047-8.021,22.246-6.355C373.789,181.384,348.115,179.507,353.958,194.317z"
				/>
			<path fill="none" d="M419.638,198.554c10.232,10.246,21.949,19.01,21.188,40.254
				C452.873,222.731,432.148,200.331,419.638,198.554z"/>
			<path fill="#F3BF29" d="M425.996,267.731c3.602-1.564,11.102-7.688,15.225-12.898c4.785-6.047,7.529-14.094,8.584-23.332
				c0.438-3.846,0.154-7.648-0.615-11.875c-1.168-3.807-3.754-9.328-9.156-14.217c-13.803-12.498-38.938-26.777-53.609-41.42
				c-1.93-1.926-1.648-0.984-1.984-0.217c-0.201,0.459-0.496,0.563-1.984,0.77c-1.414,0-2.764-0.488-4.176-0.488
				c-6.166-0.543-11.914-1.078-19.131-0.57c-0.354,0-0.705,0-1.061,0c-10.475,2.236-12.008,13.416-27.543,10.594
				c-0.705,0-1.41,0-2.117,0c-19.555,1.984-23.676,19.402-37.076,27.541c-1.697,1.27-5.697,3.27-12.053,2.697
				c-4.896,0.393-10.67-0.176-12-0.18c-8.877-0.02-26.586-1.525-27.854-1.459c9.941,11.5,18.525,24.219,26.861,37.328
				c5.252,8.262,10.02,16.691,14.93,25.299c-1.064-0.004,18.492,38.945,34.479,35.891c17.258-3.299,5.412-43.648,2.443-58.041
				c-1.947,3.057,0.678,6.846,0.813,13.598c0.531,9.416,3.344,23.41-3.988,25.6c-8.385,2.5-20.955-15.912-25.75-23.529
				c-7.744-12.299-12.813-23.299-12.713-34.957c5.551-3.984,17.693-1.375,26.484-2.119c0.705,0,1.41,0,2.117,0
				c2.41,0,10.85-0.047,23.26,0.234c21.34,2.271,5.508,0.271,23.434,3.734c31.545,9.623,23.223,8.742,22.164,8.742
				c-2.473,0,11.854,0.881,9.381,0.881c7.029,3.08,10.014,3.447,12.363,7.914c2.209,4.199,3.166,7.666,3,14.5
				c1.863,6.584-2.605,15.543-6.486,21.801C421.294,269.876,407.302,276.001,425.996,267.731z M353.847,194.202
				c-5.846-14.811,19.83-12.934,22.246-6.355C364.896,186.181,362,192.819,353.847,194.202z"/>
		</g>
		<g id="White">
			<path fill="none" d="M378.324,154.063c3.234-34.524-32.941-50.256-60.381-64.62c-25.576-13.387-57.207-30.261-81.566-29.66
				c-5.506,0.136-10.9,2.27-16.032,1.885c-6.449-0.484-10.869-1.646-17.866-4.003c-0.354,0-0.707,0-1.061,0
				c-2.867-1.76-13.021-1.76-15.891,0c-0.353,0-0.705,0-1.059,0c-0.707,0-1.413,0-2.119,0c-2.527,2.313,6.838,5.933,3.178,9.534
				c-41.195-3.298-91.412,2.429-128.178-5.298c2.444,14.304,19.196,17.783,19.068,31.78c-0.067,7.382-10.635,20.371-15.891,28.603
				c-2.584,4.047-5.731,9.271-8.475,13.77c-1.385,2.271-11.64,11.146-2.119,12.711c15.455,8.495,31.749,17.606,32.84,37.077
				c1.188,21.215-15.062,42.094-18.01,61.439c13.938,6.426,44.362,6.205,49.788,20.127c1.22,3.131-0.376,8.336,0,11.654
				c1.479,13.047,7.298,29.063,12.712,41.313c5.529,12.512,11.982,27.301,23.305,31.779c9.438-47.354,17.096-111.406,75.213-103.814
				c17.316,2.264,27.195,17.453,48.729,18.01c0.131,2.34,4.492,0.449,6.354,1.059c8.566,6.023,18.973,36.955,34.959,33.898
				c17.258-3.299,5.084-44.93,2.117-59.322c3.668-5.514,12.426-5.938,20.127-7.414c3.566-0.672,9.84,1.365,11.652-1.061
				c0.707,0,1.412,0,2.117,0c2.16,2.432,8.799,0.385,12.713,1.061c0.705,0,1.412,0,2.117,0c4.176,3.994,13.779-0.039,18.01,1.059
				c17.846,4.635,16.623,23.537,8.477,43.434c32.248,3.65,59.537-23.793,56.145-59.32
				C434.185,189.306,396.142,181.796,378.324,154.063z M275.57,163.597c-1.76-3.215-1.76-13.733,0-16.948
				c1.572-4.848,15.295-8.205,18.01-2.119c-12.854,2.729-18.309,24.011-2.119,25.425c6.24,0.545,9.754-5.145,14.83-4.238
				C303.498,179.503,277.392,174.39,275.57,163.597z M440.824,238.81c0.766-21.246-10.951-30.01-21.188-40.254"/>
			<path fill="#FFFFFF" d="M439.468,213.542c-7.09-11.027-20.566-20.248-27.625-21.248c8.906,8.125,16.736,14.174,21.75,20.748
				c5.398,7.08,7.629,14.75,7.23,25.768C446.076,231.802,444.945,222.063,439.468,213.542z"/>
			<path fill="#FFFFFF" d="M458.162,203.81c-5.441-10.891-22.207-19.244-32.84-26.482c-12.213-8.316-20.273-16.555-33.896-25.424
				c1.965-18.188-6.021-32.3-16.949-42.374c-12.916-11.903-34.621-24.024-57.203-34.958c-21.861-10.584-45.441-21.385-65.678-26.482
				c-10.023-2.525-20.646,0.508-32.839,0c-14.82-0.617-28.638-4.094-39.195-1.061c-5.056,1.454-8.325,5.6-12.712,7.416
				c-18.553-2.423-49.598,2.411-76.271,0c-13.447-1.215-22.189-8.355-32.839-6.355c-27.48,5.163-1.563,36.303,5.296,46.61
				c-6.688,11.969-18.688,24.534-24.363,38.135c-2.666,6.388-4.843,13.949-1.06,22.247c15.424,9.031,33.913,13.02,34.958,31.779
				c0.483,8.686-5.517,22-9.534,32.84c-3.233,8.727-12.087,24.816-7.415,33.898c6.316,12.275,44.177,6.52,48.729,19.066
				c2.476,23.887,6.634,39.076,16.949,60.381c5.517,11.396,15.626,33.455,31.78,29.66c9.889-2.322,9.127-15.576,11.652-28.602
				c2.287-11.797,4.961-21.146,7.416-28.604c4.641-14.102,12.879-37.018,28.602-43.432c27.902-11.385,40.789,11.287,70.973,14.83
				c10.828,12.26,18.078,32.469,34.959,36.018c37.697,7.926,37.791-41.623,25.426-66.736c18.99-1.111,49.422-3.896,52.965,8.475
				c3.627,12.658-6.652,18.156-4.236,28.602c1.076,4.654,7.639,10.604,12.711,11.652c24.398,5.033,60.447-25.104,65.68-40.254
				C462.865,244.106,463.75,214.993,458.162,203.81z M432.689,263.96c-9.303,7.791-33.162,13.369-39.789,15.762
				c3.717-7.328,6.43-13.908,6.883-21.041c0.689-10.869-3.939-20.295-14.713-23.092c-4.23-1.098-37.99-4.041-47.334-2.678
				c-7.762,1.131-14.494,4.244-18.162,9.758c2.967,14.395,15.229,54.084-3.359,58.6c-15.814,3.842-26.391-27.877-34.959-33.9
				c-0.93-0.303-11.031-0.088-22.383-4.488c-11.385-4.414-24.029-13.445-32.701-14.58c-58.116-7.592-65.773,56.465-75.212,103.814
				c-11.323-4.48-17.776-19.27-23.306-31.781c-5.414-12.25-11.23-28.264-12.711-41.313c-0.377-3.316,1.219-8.521,0-11.652
				c-5.427-13.924-35.852-13.701-49.789-20.127c2.948-19.346,19.196-40.227,18.01-61.439c-1.09-19.473-17.386-28.582-32.84-37.077
				c-9.521-1.564,0.734-10.439,2.119-12.711c2.743-4.5,5.891-9.725,8.476-13.772c5.256-8.23,15.822-21.22,15.89-28.602
				c0.128-13.997-16.624-17.477-19.068-31.78c36.767,7.727,86.983,2,128.179,5.298c4.692-2.948-5.705-7.222-3.179-9.534
				c0.707,0,1.412,0,2.119,0c0.354,0,0.707,0,1.06,0c2.866-1.76,13.022-1.76,15.89,0c0.354,0,0.707,0,1.061,0
				c7.992,3.086,11.669,3.603,18.116,4.086c5.134,0.385,10.747,1.277,16.249,1.542c25.252,1.208,55.088,14.612,80.664,28
				c27.438,14.361,64.055,28.247,60.816,62.771c11.465,17.84,33.77,29.783,50.768,42.385c5.406,4.01,3.49,2.148,14.744,12.428
				c2.6,3.936,4.654,6.301,5.465,10.865C452.96,236.806,446.552,253.241,432.689,263.96z"/>
			<path fill="#FFFFFF" d="M291.46,169.954c-16.188-1.414-10.734-22.696,2.117-25.425c-2.713-6.086-16.436-2.729-18.008,2.119
				c-1.762,3.215-1.762,13.733,0,16.948c1.822,10.793,27.928,15.906,30.721,2.119C301.214,164.81,297.699,170.499,291.46,169.954z"
				/>
		</g>
		<g id="Black">
			<path fill="none" d="M291.46,169.954c-16.188-1.414-10.734-22.696,2.117-25.425c-2.713-6.086-16.436-2.729-18.008,2.119
				c-1.762,3.215-1.762,13.733,0,16.948c1.822,10.793,27.928,15.906,30.721,2.119C301.214,164.81,297.699,170.499,291.46,169.954z"
				/>
			<path d="M359.32,227.224c-13.039-4.205-28.057-5.172-28.535-5.254c-1.029-0.176-2.564-0.182-3.602-0.182
				c-4.248,0-8.494,0-12.74,0c-2.412,0-4.824,0-7.236,0c-0.707,0-1.412,0-2.119,0c-8.789,0.746-22.75-2.18-28.301,1.805
				c-0.816,12.824,2.375,20.168,13.523,36.918c4.479,6.729,17.389,28.213,26.658,21.406c6.168-4.527,5.617-15.559,4.008-25.172
				c0.957-5.582-3.008-11.773-1.061-14.83c3.668-5.516,10.221-8.832,20.314-9.152c18.074-0.574,13.393,0.461,22.75,0.582
				c6.672,0.088,12.053,1.154,13.082,1.154C377.121,234.501,372.388,231.438,359.32,227.224z"/>
			<path d="M376.205,187.962c-2.416-6.578-28.09-8.455-22.246,6.355C362.111,192.935,365.005,186.296,376.205,187.962z"/>
			<path d="M384.546,164.251c0.643-0.943,0.313-3.133-0.326-4c-1.318-1.789-5.662-3.148-6.955-4.07
				c-10.736-5.196-29.33-1.516-34.957,5.297c-13.508-6.678-12.422-20.96-22.244-31.78c-15.73-17.319-57.863-19.634-87.924-14.83
				c13.723,7.109,33.023,8.642,28.602,33.898c-19.154-10.043-37.979-26.098-63.56-32.839
				c-53.411-14.075-109.46,4.522-148.305,26.482c-0.741,0.705-4.156,2.26-2.947,3.342c-0.035,1.613,2.662,2.531,4.006,3.016
				c15.455,8.495,31.749,17.604,32.839,37.077c1.188,21.213-15.061,42.094-18.009,61.439c13.938,6.426,44.362,6.203,49.788,20.127
				c1.221,3.129-0.376,8.336,0,11.652c1.48,13.049,7.298,29.063,12.712,41.313c5.529,12.512,11.981,27.301,23.306,31.781
				c9.438-47.352,17.096-111.406,75.211-103.814c17.316,2.264,27.285,17.875,48.814,18.434c1.768,0,4.504,0.637,6.271,0.637
				c0.416-0.1,1.334,0.619,1.217,0.16c-0.063-0.244-0.209-0.76-0.447-1.236c-0.236-0.479-0.564-0.918-0.291-0.916
				c-12.697-22.262-25.584-43.877-41.791-62.625c1.676-0.088,14.502,1.115,18.035,1.115c0.705,0,9.713,0.523,12.713,0.523
				c7.248,0.547,12.875,1.029,17.668-0.639c3.033-1.762,1.75-1,3.49-2.061c13.4-8.139,17.521-25.557,37.076-27.543
				c0.705,0,1.412,0,2.117,0c15.535,2.824,17.066-8.355,27.543-10.592c0.354,0,0.707,0,1.061,0
				c7.215-0.506,12.963,0.027,19.129,0.57c1.412,0,2.764,0.488,4.178,0.488C383.382,164.478,384.16,164.817,384.546,164.251z
				 M275.136,163.751c-1.834-5.5-1.326-13.888,0.434-17.104c4.566-7.729,15.295-8.203,18.01-2.119
				c-12.854,2.729-18.314,24.085-2.119,25.425c10.676,0.883,5.094-2.867,14.83-4.236
				C303.498,179.503,278.386,175.751,275.136,163.751z"/>
		</g>
		<path id="Orange" fill="#F57E20" d="M317.943,91.563c-25.102-12.905-56.725-28.02-84.746-28.602
			c-14.226-0.295-31.426-5.297-31.779-5.297c-2.867-1.76-16.596,0-16.949,0c-0.707,0-9.631-0.074-9.625,0.253
			c0.049,2.292,13.887,6.129,10.684,9.281c-41.193-3.297-94.416,1.945-131.183-5.78c2.443,14.303,22.202,18.267,22.074,32.264
			c-0.067,7.382-10.635,20.371-15.891,28.603c-2.584,4.047-5.731,9.271-8.475,13.77c-1.385,2.271-11.5,13.447-3.178,6.355
			c38.845-21.958,94.894-40.558,148.305-26.483c25.58,6.74,44.405,22.795,63.56,32.838c4.422-25.256-14.879-26.788-28.602-33.897
			c30.061-4.804,72.193-2.49,87.922,14.831c9.826,10.818,8.74,25.1,22.246,31.778c5.627-6.813,24.221-10.493,34.957-5.295
			C376.744,120.223,348.675,107.365,317.943,91.563z"/>
	</g>
</g>
<g id="Layer_3">
	<g>
		<g>
			<path fill="#231F20" d="M495.052,177.5h8.857v41.115h19.945v7.417h-28.803V177.5z"/>
			<path fill="#231F20" d="M539.405,177.5v48.532h-8.857V177.5H539.405z"/>
			<path fill="#231F20" d="M558.845,184.917h-13.826V177.5h36.651v7.417H567.7v41.115h-8.855V184.917z"/>
			<path fill="#231F20" d="M598.731,184.917h-13.825V177.5h36.651v7.417h-13.97v41.115h-8.856V184.917z"/>
			<path fill="#231F20" d="M627.242,177.5h8.856v41.115h19.946v7.417h-28.803V177.5z"/>
			<path fill="#231F20" d="M689.884,204.502h-18.289v14.258h20.449v7.272h-29.307V177.5h28.227v7.272h-19.369v12.529h18.289V204.502
				z"/>
			<path fill="#231F20" d="M741.866,204.502h-18.289v14.258h20.449v7.272H714.72V177.5h28.227v7.272h-19.369v12.529h18.289V204.502z
				"/>
			<path fill="#231F20" d="M761.521,212.279l-4.176,13.753H748.2l15.553-48.532h11.305l15.77,48.532h-9.576l-4.393-13.753H761.521z
				 M775.419,205.582l-3.816-11.952c-0.936-2.953-1.729-6.265-2.449-9.073h-0.143c-0.721,2.809-1.514,6.192-2.305,9.073
				l-3.744,11.952H775.419z"/>
			<path fill="#231F20" d="M834.964,223.8c-3.098,1.152-9.146,2.736-15.555,2.736c-8.209,0-14.473-2.088-19.082-6.48
				c-4.32-4.104-6.768-10.513-6.768-17.857c0.072-15.409,10.945-25.202,27.002-25.202c5.977,0,10.658,1.224,12.889,2.304
				l-1.943,7.129c-2.664-1.224-5.904-2.088-11.018-2.088c-10.369,0-17.641,6.12-17.641,17.426c0,11.017,6.768,17.569,16.85,17.569
				c3.24,0,5.545-0.433,6.695-0.937V206.23h-8.568v-6.984h17.139V223.8z"/>
			<path fill="#231F20" d="M844.03,177.5h8.857v41.115h19.945v7.417H844.03V177.5z"/>
			<path fill="#231F20" d="M906.673,204.502h-18.289v14.258h20.449v7.272h-29.307V177.5h28.227v7.272h-19.369v12.529h18.289V204.502
				z"/>
			<path fill="#231F20" d="M539.87,263.9h28.083v7.272h-19.226v13.394h17.857v7.2h-17.857v20.666h-8.857V263.9z"/>
			<path fill="#231F20" d="M619.577,287.662c0,16.273-9.865,25.563-23.186,25.563c-13.754,0-22.395-10.513-22.395-24.698
				c0-14.978,9.434-25.49,23.114-25.49C611.225,263.036,619.577,273.766,619.577,287.662z M583.358,288.311
				c0,9.937,4.969,17.785,13.465,17.785c8.568,0,13.394-7.992,13.394-18.146c0-9.145-4.536-17.785-13.394-17.785
				C588.038,270.165,583.358,278.302,583.358,288.311z"/>
			<path fill="#231F20" d="M670.265,287.662c0,16.273-9.865,25.563-23.186,25.563c-13.754,0-22.395-10.513-22.395-24.698
				c0-14.978,9.434-25.49,23.114-25.49C661.912,263.036,670.265,273.766,670.265,287.662z M634.046,288.311
				c0,9.937,4.969,17.785,13.465,17.785c8.568,0,13.394-7.992,13.394-18.146c0-9.145-4.536-17.785-13.394-17.785
				C638.726,270.165,634.046,278.302,634.046,288.311z"/>
			<path fill="#231F20" d="M685.238,271.317h-13.825V263.9h36.65v7.417h-13.969v41.115h-8.856V271.317z"/>
			<path fill="#231F20" d="M713.749,264.62c2.809-0.576,7.92-1.08,12.961-1.08c6.48,0,10.584,0.864,13.824,3.097
				c3.025,1.8,5.041,4.969,5.041,9.145c0,4.465-2.809,8.497-8.064,10.441v0.216c5.113,1.296,9.793,5.328,9.793,11.953
				c0,4.32-1.873,7.704-4.609,10.081c-3.455,2.952-9.145,4.464-18.072,4.464c-4.896,0-8.568-0.36-10.873-0.647V264.62z
				 M722.534,283.774h4.535c6.193,0,9.578-2.881,9.578-6.985c0-4.608-3.457-6.696-9.074-6.696c-2.592,0-4.104,0.145-5.039,0.36
				V283.774z M722.534,306.024c1.15,0.216,2.664,0.216,4.68,0.216c5.688,0,10.801-2.088,10.801-8.064
				c0-5.688-4.969-7.993-11.088-7.993h-4.393V306.024z"/>
			<path fill="#231F20" d="M764.726,298.68l-4.176,13.753h-9.146l15.555-48.532h11.305l15.77,48.532h-9.576l-4.393-13.753H764.726z
				 M778.622,291.982l-3.816-11.952c-0.936-2.953-1.729-6.265-2.447-9.073h-0.145c-0.721,2.809-1.512,6.192-2.305,9.073
				l-3.744,11.952H778.622z"/>
			<path fill="#231F20" d="M800.796,263.9h8.855v41.115h19.947v7.417h-28.803V263.9z"/>
			<path fill="#231F20" d="M836.292,263.9h8.855v41.115h19.947v7.417h-28.803V263.9z"/>
		</g>
		<g>
			<path fill="#231F20" d="M449.644,124.842c4.29,2.53,11,4.73,17.93,4.73c8.58,0,13.42-4.07,13.42-10.12
				c0-5.61-3.74-8.91-13.09-12.32c-12.32-4.4-20.13-10.89-20.13-21.56c0-12.21,10.12-21.34,26.29-21.34
				c8.03,0,13.86,1.76,17.71,3.74l-3.189,10.89c-2.75-1.43-7.92-3.52-14.851-3.52c-8.58,0-12.21,4.51-12.21,8.91
				c0,5.72,4.29,8.36,14.19,12.21c12.871,4.84,19.031,11.33,19.031,22c0,11.99-9.021,22.33-28.051,22.33
				c-7.92,0-16.06-2.2-20.13-4.73L449.644,124.842z"/>
			<path fill="#231F20" d="M572.734,101.742c0,24.86-15.069,39.05-35.42,39.05c-21.011,0-34.21-16.06-34.21-37.73
				c0-22.88,14.41-38.94,35.31-38.94C559.975,64.122,572.734,80.512,572.734,101.742z M517.404,102.732
				c0,15.18,7.59,27.17,20.569,27.17c13.091,0,20.461-12.21,20.461-27.72c0-13.97-6.93-27.17-20.461-27.17
				C524.554,75.012,517.404,87.442,517.404,102.732z"/>
			<path fill="#231F20" d="M646.983,109.333c-0.439-9.57-0.99-21.12-0.879-31.13h-0.33c-2.42,9.02-5.5,19.03-8.801,28.38
				l-10.89,32.12h-10.341l-9.899-31.68c-2.86-9.46-5.5-19.58-7.479-28.82h-0.221c-0.33,9.68-0.77,21.45-1.32,31.57l-1.649,29.81
				h-12.65l4.95-74.141h17.82l9.68,29.811c2.641,8.69,4.95,17.49,6.82,25.74h0.33c1.979-8.03,4.51-17.16,7.369-25.85l10.23-29.7
				h17.6l4.291,74.141h-13.2L646.983,109.333z"/>
			<path fill="#231F20" d="M716.834,106.692h-27.94v21.78h31.24v11.11h-44.771V65.442h43.12v11.11h-29.59v19.14h27.94V106.692z"/>
			<path fill="#231F20" d="M732.013,66.542c5.171-0.99,12.65-1.65,20.461-1.65c10.67,0,17.819,1.76,22.88,5.94
				c4.07,3.41,6.38,8.58,6.38,14.96c0,9.57-6.49,16.061-13.53,18.48v0.33c5.391,1.98,8.58,7.15,10.34,14.3
				c2.421,9.24,4.4,17.82,5.83,20.68h-13.859c-1.101-2.2-2.971-8.25-4.95-17.49c-2.2-9.68-5.61-12.76-13.311-12.98h-6.819v30.47
				h-13.421V66.542z M745.434,99.212h8.029c9.131,0,14.74-4.84,14.74-12.21c0-8.03-5.609-11.88-14.41-11.88
				c-4.29,0-7.04,0.33-8.359,0.66V99.212z"/>
			<path fill="#231F20" d="M794.381,124.842c4.29,2.53,11,4.73,17.931,4.73c8.58,0,13.42-4.07,13.42-10.12
				c0-5.61-3.74-8.91-13.09-12.32c-12.32-4.4-20.131-10.89-20.131-21.56c0-12.21,10.12-21.34,26.29-21.34
				c8.03,0,13.86,1.76,17.711,3.74l-3.19,10.89c-2.75-1.43-7.92-3.52-14.851-3.52c-8.579,0-12.21,4.51-12.21,8.91
				c0,5.72,4.29,8.36,14.19,12.21c12.87,4.84,19.03,11.33,19.03,22c0,11.99-9.021,22.33-28.05,22.33
				c-7.921,0-16.061-2.2-20.131-4.73L794.381,124.842z"/>
			<path fill="#231F20" d="M893.161,106.692h-27.94v21.78h31.24v11.11H851.69V65.442h43.121v11.11h-29.591v19.14h27.94V106.692z"/>
			<path fill="#231F20" d="M923.631,76.772h-21.12v-11.33h55.99v11.33h-21.34v62.811h-13.53V76.772z"/>
		</g>
	</g>
</g>
<g id="Layer_2" display="none">
	<path display="inline" fill="none" stroke="#231F20" stroke-width="6" d="M948.79,351.14c0,6.627-5.373,12-12,12h-895
		c-6.627,0-12-5.373-12-12V39c0-6.627,5.373-12,12-12h895c6.627,0,12,5.373,12,12V351.14z"/>
</g>
</svg>
