<?xml version="1.0" encoding="utf-8"?>
<!-- Generator: Adobe Illustrator 14.0.0, SVG Export Plug-In . SVG Version: 6.00 Build 43363)  -->
<!DOCTYPE svg PUBLIC "-//W3C//DTD SVG 1.1 Tiny//EN" "http://www.w3.org/Graphics/SVG/1.1/DTD/svg11-tiny.dtd">
<svg version="1.1" baseProfile="tiny" xmlns="http://www.w3.org/2000/svg" xmlns:xlink="http://www.w3.org/1999/xlink" x="0px"
	 y="0px" width="1000px" height="500px" viewBox="0 0 1000 500" xml:space="preserve">
<g id="Layer_1">
	<path stroke="#000000" stroke-width="10" d="M922.384,252.564c0,0-196.205,242.811-438.235,242.811
		c-242.031,0-438.235-242.811-438.235-242.811S242.118,9.756,484.148,9.756C726.179,9.756,922.384,252.564,922.384,252.564z"/>
	<rect x="30.881" y="190.146" fill="#FFFFFF" width="906.535" height="123.529"/>
	<path fill="#FFFFFF" stroke="#000000" d="M461.681,24.04c0,4.693-3.804,8.497-8.497,8.497l0,0c-4.692,0-8.497-3.804-8.497-8.497
		V11.622c0-4.692,3.804-8.497,8.497-8.497l0,0c4.693,0,8.497,3.804,8.497,8.497V24.04z"/>
	<path fill="#FFFFFF" stroke="#000000" d="M486.23,24.04c0,4.692-3.804,8.497-8.497,8.497l0,0c-4.692,0-8.497-3.805-8.497-8.497
		V11.622c0-4.692,3.804-8.497,8.497-8.497l0,0c4.693,0,8.497,3.805,8.497,8.497V24.04z"/>
	<path fill="#FFFFFF" stroke="#000000" d="M511.072,23.291c0,4.692-3.803,8.497-8.496,8.497l0,0c-4.694,0-8.498-3.805-8.498-8.497
		V10.873c0-4.692,3.804-8.497,8.498-8.497l0,0c4.693,0,8.496,3.805,8.496,8.497V23.291z"/>
	<path fill="#FFFFFF" stroke="#000000" d="M534.072,24.04c0,4.693-3.805,8.497-8.497,8.497l0,0c-4.692,0-8.497-3.804-8.497-8.497
		V11.622c0-4.692,3.805-8.496,8.497-8.496l0,0c4.692,0,8.497,3.804,8.497,8.496V24.04z"/>
	<path fill="#FFFFFF" stroke="#000000" d="M558.622,26.629c0,4.692-3.804,8.497-8.497,8.497l0,0c-4.692,0-8.496-3.805-8.496-8.497
		V14.211c0-4.692,3.804-8.497,8.496-8.497l0,0c4.693,0,8.497,3.805,8.497,8.497V26.629z"/>
	<path fill="#FFFFFF" stroke="#000000" d="M583.464,30.671c0,4.691-3.803,8.496-8.496,8.496l0,0c-4.693,0-8.498-3.805-8.498-8.496
		V18.253c0-4.693,3.805-8.498,8.498-8.498l0,0c4.693,0,8.496,3.805,8.496,8.498V30.671z"/>
	<path fill="#FFFFFF" stroke="#000000" d="M387.948,30.67c0,4.693-3.804,8.497-8.497,8.497l0,0c-4.692,0-8.497-3.804-8.497-8.497
		V18.252c0-4.692,3.804-8.496,8.497-8.496l0,0c4.693,0,8.497,3.804,8.497,8.496V30.67z"/>
	<path fill="#FFFFFF" stroke="#000000" d="M412.498,27.38c0,4.692-3.804,8.497-8.497,8.497l0,0c-4.692,0-8.497-3.805-8.497-8.497
		V14.962c0-4.692,3.804-8.497,8.497-8.497l0,0c4.693,0,8.497,3.805,8.497,8.497V27.38z"/>
	<path fill="#FFFFFF" stroke="#000000" d="M437.34,25.327c0,4.691-3.803,8.496-8.496,8.496l0,0c-4.693,0-8.498-3.805-8.498-8.496
		V12.909c0-4.693,3.805-8.498,8.498-8.498l0,0c4.693,0,8.496,3.805,8.496,8.498V25.327z"/>
</g>
<g id="Layer_4">
	<rect x="205.315" y="344.333" fill="none" width="557.667" height="77.667"/>
	<text transform="matrix(1 0 0 1 229.5596 391.5234)" fill="#F57E20" font-family="'BookAntiqua-Bold'" font-size="65">Football &amp; Cheer</text>
</g>
<g id="Layer_2">
	<rect x="164.815" y="83.667" fill="none" width="638.667" height="128.667"/>
	<text transform="matrix(1 0 0 1 251.9287 163.5269)" fill="#F57E20" font-family="'BookAntiqua-Bold'" font-size="110">Somerset</text>
</g>
<g id="Layer_3">
	<rect x="108.148" y="216.334" fill="none" width="752" height="108.667"/>
	<text transform="matrix(1 0 0 1 121.6973 288.9336)" font-family="'BookAntiqua-Bold'" font-size="100">LITTLE EAGLE</text>
</g>
</svg>
